<?xml version="1.0" encoding="UTF-8"?>
<svg version="1.1" xmlns="http://www.w3.org/2000/svg" width="200" height="200">
<path d="M0 0 C2 2 2 2 2.08984375 5.3359375 C2.02772952 7.3636667 1.93683965 9.38800765 1.83398438 11.4140625 C1.71068519 15.73378583 2.16292431 17.77110312 5 21 C6.26325854 29.68490248 2.40131833 38.52233956 -2.1875 45.8125 C-2.785625 46.534375 -3.38375 47.25625 -4 48 C-4.66 48 -5.32 48 -6 48 C-6.33 48.99 -6.66 49.98 -7 51 C-9.0625 52.1875 -9.0625 52.1875 -11 53 C-10.401875 52.835 -9.80375 52.67 -9.1875 52.5 C-5.03098983 51.54994053 -1.16289869 52.37163793 3 53 C3.33 51.35 3.66 49.7 4 48 C4.66 48.33 5.32 48.66 6 49 C5.79375 49.7425 5.5875 50.485 5.375 51.25 C4.94998068 54.36680834 5.12619554 55.50159405 7 58 C9.05000871 58.80528889 9.05000871 58.80528889 11 59 C11.350625 58.195625 11.70125 57.39125 12.0625 56.5625 C14 54 14 54 17.4375 53.0625 C21 53 21 53 22.9375 54.0625 C25.87094995 55.39588634 27.86312217 54.31992709 30.8359375 53.45703125 C34.46098732 52.69145214 37.38444468 53.25195407 41 54 C41.66 54.66 42.32 55.32 43 56 C43.99 55.01 43.99 55.01 45 54 C47.3828125 53.8046875 47.3828125 53.8046875 50.125 53.875 C51.03507813 53.89304688 51.94515625 53.91109375 52.8828125 53.9296875 C53.58148438 53.95289063 54.28015625 53.97609375 55 54 C55.88855164 56.99553637 56.19605797 58.51639033 55.00390625 61.45703125 C54.52824219 62.23433594 54.05257812 63.01164062 53.5625 63.8125 C52.85287109 64.99779297 52.85287109 64.99779297 52.12890625 66.20703125 C51.75636719 66.79871094 51.38382813 67.39039062 51 68 C51.3609375 68.43570313 51.721875 68.87140625 52.09375 69.3203125 C54.54720826 72.46891726 55.92470204 74.32231838 56.375 78.375 C56 81 56 81 55 82 C47.63366337 82.47524752 47.63366337 82.47524752 45 80.5 C44.67 80.005 44.34 79.51 44 79 C43.38125 79.7115625 43.38125 79.7115625 42.75 80.4375 C39.75362193 83.11283756 36.45833275 83.13850375 32.5625 83.125 C31.45068359 83.12886719 31.45068359 83.12886719 30.31640625 83.1328125 C28 83 28 83 25.58203125 82.5 C19.63499099 81.3483795 13.27410274 81.65310297 7.3125 82.5625 C3.13439095 83.11432572 -0.88488037 82.96382639 -5 82 C-5.66 81.34 -6.32 80.68 -7 80 C-7.66 80.66 -8.32 81.32 -9 82 C-13.13997567 82.1971417 -16.07703567 82.30765478 -20 81 C-20.8353125 81.4640625 -20.8353125 81.4640625 -21.6875 81.9375 C-25.08405892 83.49808113 -28.31623181 83.40338784 -32 83 C-33.3479743 82.36345658 -34.68596724 81.70394612 -36 81 C-37.98491642 81.26676204 -37.98491642 81.26676204 -40 82 C-43.51671653 82.82010534 -46.7710125 83.12835005 -50.37890625 83.1328125 C-51.38244141 83.13410156 -52.38597656 83.13539063 -53.41992188 83.13671875 C-54.45697266 83.13285156 -55.49402344 83.12898438 -56.5625 83.125 C-57.60341797 83.12886719 -58.64433594 83.13273437 -59.71679688 83.13671875 C-60.71904297 83.13542969 -61.72128906 83.13414062 -62.75390625 83.1328125 C-63.66470947 83.13168457 -64.5755127 83.13055664 -65.51391602 83.12939453 C-68 83 -68 83 -70.26538086 82.42919922 C-70.83780518 82.28756348 -71.41022949 82.14592773 -72 82 C-72.33 82.33 -72.66 82.66 -73 83 C-75.27564709 82.81867354 -77.51398288 82.48008063 -79.7734375 82.15625 C-82.17283708 81.84546629 -82.17283708 81.84546629 -85 83 C-89.95337583 83.23967948 -93.48141403 83.25929298 -98 81 C-98 80.34 -98 79.68 -98 79 C-98.66 79 -99.32 79 -100 79 C-99.07777778 74.25714286 -99.07777778 74.25714286 -98.42578125 72.1015625 C-97.94088704 69.70823146 -98.19655238 68.01926611 -98.625 65.625 C-99.16874618 61.2242809 -98.75828855 58.64805905 -96 55 C-91.09884555 52.83161045 -86.57054705 52.66481645 -81.3125 52.6875 C-80.55388672 52.67138672 -79.79527344 52.65527344 -79.01367188 52.63867188 C-73.55512444 52.63385409 -73.55512444 52.63385409 -70.98046875 54.33203125 C-70 56 -70 56 -70 59 C-67.59122743 58.88658466 -67.59122743 58.88658466 -65 58 C-64.67515625 57.16726562 -64.3503125 56.33453125 -64.015625 55.4765625 C-62 53 -62 53 -59.76489258 52.55834961 C-56.85005718 52.43347651 -53.97839527 52.46723372 -51.0625 52.5625 C-50.06025391 52.56830078 -49.05800781 52.57410156 -48.02539062 52.58007812 C-43.32862203 52.65840982 -40.20014474 52.87432042 -36 55 C-33.76529595 54.21690533 -33.76529595 54.21690533 -32 53 C-35.75552235 50.65279853 -38.82671583 48.90520313 -43.1875 48.0625 C-47 47 -47 47 -49.5625 44.8125 C-51.48136169 41.05820539 -51.01059547 39.04238186 -50 35 C-49.690625 34.236875 -49.38125 33.47375 -49.0625 32.6875 C-48.04437762 30.11224927 -47.665265 27.97229277 -47.25 25.25 C-45.9581358 18.43465343 -42.46735912 13.5340445 -37.6875 8.625 C-31.65186916 4.9755488 -26.49409716 3.84172581 -19.4375 4.0625 C-14.20846902 4.21503883 -11.10597512 3.55039026 -6.6484375 0.8984375 C-4.34039007 -0.35950304 -2.56423774 -0.45251254 0 0 Z M-8 56 C-8 56.66 -8 57.32 -8 58 C-9.32 58.33 -10.64 58.66 -12 59 C-10.35 59 -8.7 59 -7 59 C-6.67 58.01 -6.34 57.02 -6 56 C-6.66 56 -7.32 56 -8 56 Z M36 58 C37.07401108 60.91517292 37.77810176 62.77810176 40 65 C39.65430498 69.14834029 37.87153914 72.33829298 36 76 C36 76.66 36 77.32 36 78 C39.36591866 76.55746343 41.51047079 74.66735273 44 72 C44.61875 72.825 45.2375 73.65 45.875 74.5 C46.57625 75.325 47.2775 76.15 48 77 C48.66 77 49.32 77 50 77 C49.690625 76.113125 49.38125 75.22625 49.0625 74.3125 C48.711875 73.219375 48.36125 72.12625 48 71 C47.71125 70.175 47.4225 69.35 47.125 68.5 C46.9395545 64.79108991 48.86184574 62.9156649 51 60 C51 59.34 51 58.68 51 58 C49.04105639 58.11306697 49.04105639 58.11306697 47 59 C45.70339566 61.49034386 45.70339566 61.49034386 45 64 C41.125 60.25 41.125 60.25 40 58 C38.68 58 37.36 58 36 58 Z M-7 72 C-6 74 -6 74 -6 74 Z " fill="#1C1011" transform="translate(123,55)"/>
<path d="M0 0 C2 2 2 2 2.08984375 5.3359375 C2.02772952 7.3636667 1.93683965 9.38800765 1.83398438 11.4140625 C1.71068519 15.73378583 2.16292431 17.77110312 5 21 C6.26325854 29.68490248 2.40131833 38.52233956 -2.1875 45.8125 C-2.785625 46.534375 -3.38375 47.25625 -4 48 C-4.66 48 -5.32 48 -6 48 C-6.33 48.99 -6.66 49.98 -7 51 C-9.0625 52.1875 -9.0625 52.1875 -11 53 C-10.401875 52.835 -9.80375 52.67 -9.1875 52.5 C-5.03098983 51.54994053 -1.16289869 52.37163793 3 53 C3.33 51.35 3.66 49.7 4 48 C4.99 48.495 4.99 48.495 6 49 C5.79375 49.7425 5.5875 50.485 5.375 51.25 C4.94998068 54.36680834 5.12619554 55.50159405 7 58 C9.05000871 58.80528889 9.05000871 58.80528889 11 59 C11.350625 58.195625 11.70125 57.39125 12.0625 56.5625 C14 54 14 54 17.5 53.0625 C21 53 21 53 24 55 C26.17270568 55.66823974 26.17270568 55.66823974 28.5 56.125 C29.2734375 56.29257813 30.046875 56.46015625 30.84375 56.6328125 C33.12835584 57.0839366 33.12835584 57.0839366 36 57 C36.12375 57.7425 36.2475 58.485 36.375 59.25 C36.8617075 61.96919464 36.8617075 61.96919464 38.125 64.0625 C39 66 39 66 38.8125 67.9375 C38 70 38 70 36.5 72.4375 C34.97748751 75.03845884 34.49033983 77.05796101 34 80 C33 81 33 81 30.25 81.125 C27 81 27 81 24.375 80.4375 C22.07083437 79.8377009 22.07083437 79.8377009 20.125 80.5 C18 81 18 81 14.86328125 80.53515625 C10.87281475 79.98238182 7.0882076 79.90187427 3.0625 79.9375 C2.37865234 79.94201172 1.69480469 79.94652344 0.99023438 79.95117188 C-0.67321604 79.9628044 -2.3366205 79.98073306 -4 80 C-4.97591583 76.61682513 -4.85856655 74.4342662 -4 71 C-5.65 71 -7.3 71 -9 71 C-8.979375 72.299375 -8.95875 73.59875 -8.9375 74.9375 C-8.91600546 76.29165633 -8.92851801 77.64756083 -9 79 C-10 80 -10 80 -13.0625 80.0625 C-14.031875 80.041875 -15.00125 80.02125 -16 80 C-16 79.34 -16 78.68 -16 78 C-16.66 78 -17.32 78 -18 78 C-18 77.34 -18 76.68 -18 76 C-18.99 75.505 -18.99 75.505 -20 75 C-19.67 74.46375 -19.34 73.9275 -19 73.375 C-17.70382813 70.29659181 -17.60125997 68.32283362 -18 65 C-19.92293518 61.78170896 -19.92293518 61.78170896 -22 59 C-22 58.34 -22 57.68 -22 57 C-22.66 56.67 -23.32 56.34 -24 56 C-24 55.01 -24 54.02 -24 53 C-25.485 52.505 -25.485 52.505 -27 52 C-26.31292969 52.01160156 -25.62585938 52.02320313 -24.91796875 52.03515625 C-24.01691406 52.04417969 -23.11585937 52.05320313 -22.1875 52.0625 C-20.84751953 52.07990234 -20.84751953 52.07990234 -19.48046875 52.09765625 C-16.86586209 52.11009967 -16.86586209 52.11009967 -14 51 C-13.67 50.01 -13.34 49.02 -13 48 C-11 46.66666667 -9 45.33333333 -7 44 C-6.67 43.01 -6.34 42.02 -6 41 C-6.99 41.495 -6.99 41.495 -8 42 C-8.99 41.01 -9.98 40.02 -11 39 C-10.18595703 38.41992188 -10.18595703 38.41992188 -9.35546875 37.828125 C-8.28232422 37.04695313 -8.28232422 37.04695313 -7.1875 36.25 C-6.47980469 35.73953125 -5.77210937 35.2290625 -5.04296875 34.703125 C-2.03369185 32.19443527 -0.16033305 30.41093084 0.29296875 26.421875 C0.25816406 25.54015625 0.22335938 24.6584375 0.1875 23.75 C0.16042969 22.85796875 0.13335937 21.9659375 0.10546875 21.046875 C0.05326172 20.03367187 0.05326172 20.03367187 0 19 C-0.495 19.495 -0.495 19.495 -1 20 C-0.7525 21.7015625 -0.7525 21.7015625 -0.5 23.4375 C-0.37797542 29.05063078 -4.00559512 32.10566145 -7.640625 35.99609375 C-9.90028859 37.91531133 -11.10847766 38.63524374 -14 39 C-14.1016772 31.22895693 -12.81358622 26.97806736 -7.71875 21.12109375 C-3.67891352 16.13556828 -2.64966232 10.23675829 -2 4 C-9.55465718 7.57929389 -15.42908124 10.36980683 -19.9375 17.625 C-22.51572589 21.69833112 -24.24334435 22.83726195 -29 24 C-31.47730384 26.55988064 -32 27.38813866 -32 31 C-32.639375 31.103125 -33.27875 31.20625 -33.9375 31.3125 C-34.618125 31.539375 -35.29875 31.76625 -36 32 C-36.33 32.99 -36.66 33.98 -37 35 C-37.33 35 -37.66 35 -38 35 C-38.62272262 23.34124872 -38.62272262 23.34124872 -36.375 18.5 C-28.40301744 10.10843942 -28.40301744 10.10843942 -23.8359375 9.90234375 C-22.61777344 9.91974609 -22.61777344 9.91974609 -21.375 9.9375 C-20.14910156 9.95103516 -20.14910156 9.95103516 -18.8984375 9.96484375 C-17.95871094 9.98224609 -17.95871094 9.98224609 -17 10 C-17 9.34 -17 8.68 -17 8 C-24.56375479 8.15294357 -30.11726836 9.03950182 -36 14 C-38.2889924 16.360962 -38.2889924 16.360962 -40 19 C-40.70125 19.928125 -41.4025 20.85625 -42.125 21.8125 C-45.78396727 28.03274435 -46.25383205 33.89270262 -46 41 C-44.6078125 41.680625 -44.6078125 41.680625 -43.1875 42.375 C-39.06301794 44.47767713 -35.49829622 46.97444652 -32 50 C-32 50.66 -32 51.32 -32 52 C-32.61875 51.731875 -33.2375 51.46375 -33.875 51.1875 C-36.84965346 49.99157963 -36.84965346 49.99157963 -39.41796875 49.375 C-43.50684719 48.3120124 -46.41165063 47.49257157 -49.6875 44.75 C-51.45746988 41.04149169 -50.98602402 38.94409608 -50 35 C-49.690625 34.236875 -49.38125 33.47375 -49.0625 32.6875 C-48.04437762 30.11224927 -47.665265 27.97229277 -47.25 25.25 C-45.9581358 18.43465343 -42.46735912 13.5340445 -37.6875 8.625 C-31.65186916 4.9755488 -26.49409716 3.84172581 -19.4375 4.0625 C-14.20846902 4.21503883 -11.10597512 3.55039026 -6.6484375 0.8984375 C-4.34039007 -0.35950304 -2.56423774 -0.45251254 0 0 Z M-8 56 C-8 56.66 -8 57.32 -8 58 C-9.32 58.33 -10.64 58.66 -12 59 C-10.35 59 -8.7 59 -7 59 C-6.67 58.01 -6.34 57.02 -6 56 C-6.66 56 -7.32 56 -8 56 Z M-14 40 C-13.01 40 -12.02 40 -11 40 C-11.66 41.65 -12.32 43.3 -13 45 C-13.66 44.67 -14.32 44.34 -15 44 C-14.67 42.68 -14.34 41.36 -14 40 Z " fill="#182326" transform="translate(123,55)"/>
<path d="M0 0 C0.55370897 6.36765314 -0.99661655 11.36865603 -4 17 C-5.53125 18.80859375 -5.53125 18.80859375 -7.125 20.4375 C-11.06444914 24.57591122 -11.42267803 29.49553362 -12 35 C-7.19099069 32.13749446 -2.77774927 28.97680077 0 24 C0.46995622 20.92570309 0.37713915 18.07996976 0 15 C0.66 15 1.32 15 2 15 C3.65247981 18.30495961 3.7694644 21.45674053 3 25 C0.08715762 29.50530291 -3.66913003 32.88598951 -8 36 C-7.01 36.33 -6.02 36.66 -5 37 C-4.01 36.34 -3.02 35.68 -2 35 C-3.21215672 39.7139428 -5.52376313 41.38626877 -9.44140625 43.88671875 C-11.16049794 44.93108945 -11.16049794 44.93108945 -12 47 C-12.66 47 -13.32 47 -14 47 C-14.33 47.66 -14.66 48.32 -15 49 C-17.31 49 -19.62 49 -22 49 C-22 49.66 -22 50.32 -22 51 C-21.34 51.33 -20.68 51.66 -20 52 C-17.34622275 55.81983089 -15.24868002 59.59081324 -14.4375 64.1875 C-15.17223054 67.8611527 -16.68025313 70.08374679 -19 73 C-23.45197935 75.96798624 -27.91774016 75.39042372 -33 74.4375 C-36.82825803 73.74342007 -36.82825803 73.74342007 -44 75 C-44 67.74 -44 60.48 -44 53 C-40.94010417 52.25130208 -37.88020833 51.50260417 -34.8203125 50.75390625 C-32.07515279 50.1213522 -32.07515279 50.1213522 -30 49 C-31.34887762 44.95336715 -33.41467534 44.17931499 -37 42 C-38.051875 41.4740625 -38.051875 41.4740625 -39.125 40.9375 C-41.40045839 39.79977081 -43.12722341 38.74175929 -45 37 C-45.390625 34.51953125 -45.390625 34.51953125 -45.25 31.8125 C-45.21390625 30.91144531 -45.1778125 30.01039062 -45.140625 29.08203125 C-45.09421875 28.39496094 -45.0478125 27.70789063 -45 27 C-44.34 27 -43.68 27 -43 27 C-43.06445312 26.11441406 -43.12890625 25.22882813 -43.1953125 24.31640625 C-42.83746946 18.24023151 -38.50927452 13.54469958 -34.33984375 9.31640625 C-29.69962522 5.31703632 -26.36697926 3.72935764 -20.25 3.875 C-19.26515625 3.89304688 -18.2803125 3.91109375 -17.265625 3.9296875 C-16.14414063 3.96449219 -16.14414063 3.96449219 -15 4 C-15 4.66 -15 5.32 -15 6 C-15.87011719 6.03867188 -15.87011719 6.03867188 -16.7578125 6.078125 C-23.6243812 6.57668774 -27.65323079 8.33609981 -32.3125 13.625 C-35.00587148 17.41567097 -35.11184417 19.48664774 -35.0625 24.125 C-35.04896484 25.76855469 -35.04896484 25.76855469 -35.03515625 27.4453125 C-35.02355469 28.28835937 -35.01195313 29.13140625 -35 30 C-34.34 28.68 -33.68 27.36 -33 26 C-32.01 26 -31.02 26 -30 26 C-30 25.01 -30 24.02 -30 23 C-25.84476414 18.15222482 -25.84476414 18.15222482 -23.02734375 17.64453125 C-20.06362178 16.7023075 -19.39888874 14.93297918 -17.8125 12.3125 C-13.91856742 6.42945901 -7.50200776 0 0 0 Z M-12 36 C-12.33 37.65 -12.66 39.3 -13 41 C-12.34 41 -11.68 41 -11 41 C-10.34 39.35 -9.68 37.7 -9 36 C-9.99 36 -10.98 36 -12 36 Z " fill="#261F19" transform="translate(121,59)"/>
<path d="M0 0 C2 2 2 2 2.08984375 5.3359375 C2.02772952 7.3636667 1.93683965 9.38800765 1.83398438 11.4140625 C1.71068519 15.73378583 2.16292431 17.77110312 5 21 C6.26325854 29.68490248 2.40131833 38.52233956 -2.1875 45.8125 C-2.785625 46.534375 -3.38375 47.25625 -4 48 C-4.66 48 -5.32 48 -6 48 C-6.33 48.99 -6.66 49.98 -7 51 C-9.0625 52.1875 -9.0625 52.1875 -11 53 C-10.401875 52.835 -9.80375 52.67 -9.1875 52.5 C-5.03098983 51.54994053 -1.16289869 52.37163793 3 53 C3.33 51.35 3.66 49.7 4 48 C4.99 48.495 4.99 48.495 6 49 C5.79375 49.7425 5.5875 50.485 5.375 51.25 C4.94667786 54.39102902 5.15964647 55.45855941 7 58 C9.0335948 59.26804566 9.0335948 59.26804566 11 60 C5.25 61.125 5.25 61.125 3 60 C3 58.68 3 57.36 3 56 C0.6568787 56.25561323 -1.67843403 56.59270772 -4 57 C-4.495 57.99 -4.495 57.99 -5 59 C-5.99 58.505 -5.99 58.505 -7 58 C-6.505 57.01 -6.505 57.01 -6 56 C-6.66 56 -7.32 56 -8 56 C-8 56.66 -8 57.32 -8 58 C-15.75 59 -15.75 59 -18 59 C-18 59.66 -18 60.32 -18 61 C-19.32 60.34 -20.64 59.68 -22 59 C-22 58.34 -22 57.68 -22 57 C-22.66 56.67 -23.32 56.34 -24 56 C-24 55.01 -24 54.02 -24 53 C-25.485 52.505 -25.485 52.505 -27 52 C-26.31292969 52.01160156 -25.62585938 52.02320313 -24.91796875 52.03515625 C-24.01691406 52.04417969 -23.11585937 52.05320313 -22.1875 52.0625 C-20.84751953 52.07990234 -20.84751953 52.07990234 -19.48046875 52.09765625 C-16.86586209 52.11009967 -16.86586209 52.11009967 -14 51 C-13.67 50.01 -13.34 49.02 -13 48 C-11 46.66666667 -9 45.33333333 -7 44 C-6.67 43.01 -6.34 42.02 -6 41 C-6.99 41.495 -6.99 41.495 -8 42 C-8.99 41.01 -9.98 40.02 -11 39 C-10.18595703 38.41992188 -10.18595703 38.41992188 -9.35546875 37.828125 C-8.28232422 37.04695313 -8.28232422 37.04695313 -7.1875 36.25 C-6.47980469 35.73953125 -5.77210937 35.2290625 -5.04296875 34.703125 C-2.03369185 32.19443527 -0.16033305 30.41093084 0.29296875 26.421875 C0.25816406 25.54015625 0.22335938 24.6584375 0.1875 23.75 C0.16042969 22.85796875 0.13335937 21.9659375 0.10546875 21.046875 C0.05326172 20.03367187 0.05326172 20.03367187 0 19 C-0.495 19.495 -0.495 19.495 -1 20 C-0.7525 21.7015625 -0.7525 21.7015625 -0.5 23.4375 C-0.37797542 29.05063078 -4.00559512 32.10566145 -7.640625 35.99609375 C-9.90028859 37.91531133 -11.10847766 38.63524374 -14 39 C-14.1016772 31.22895693 -12.81358622 26.97806736 -7.71875 21.12109375 C-3.67891352 16.13556828 -2.64966232 10.23675829 -2 4 C-9.55465718 7.57929389 -15.42908124 10.36980683 -19.9375 17.625 C-22.51572589 21.69833112 -24.24334435 22.83726195 -29 24 C-31.47730384 26.55988064 -32 27.38813866 -32 31 C-32.639375 31.103125 -33.27875 31.20625 -33.9375 31.3125 C-34.618125 31.539375 -35.29875 31.76625 -36 32 C-36.33 32.99 -36.66 33.98 -37 35 C-37.33 35 -37.66 35 -38 35 C-38.62272262 23.34124872 -38.62272262 23.34124872 -36.375 18.5 C-28.40301744 10.10843942 -28.40301744 10.10843942 -23.8359375 9.90234375 C-22.61777344 9.91974609 -22.61777344 9.91974609 -21.375 9.9375 C-20.14910156 9.95103516 -20.14910156 9.95103516 -18.8984375 9.96484375 C-17.95871094 9.98224609 -17.95871094 9.98224609 -17 10 C-17 9.34 -17 8.68 -17 8 C-24.56375479 8.15294357 -30.11726836 9.03950182 -36 14 C-38.2889924 16.360962 -38.2889924 16.360962 -40 19 C-40.70125 19.928125 -41.4025 20.85625 -42.125 21.8125 C-45.78396727 28.03274435 -46.25383205 33.89270262 -46 41 C-44.6078125 41.680625 -44.6078125 41.680625 -43.1875 42.375 C-39.06301794 44.47767713 -35.49829622 46.97444652 -32 50 C-32 50.66 -32 51.32 -32 52 C-32.61875 51.731875 -33.2375 51.46375 -33.875 51.1875 C-36.84965346 49.99157963 -36.84965346 49.99157963 -39.41796875 49.375 C-43.50684719 48.3120124 -46.41165063 47.49257157 -49.6875 44.75 C-51.45746988 41.04149169 -50.98602402 38.94409608 -50 35 C-49.690625 34.236875 -49.38125 33.47375 -49.0625 32.6875 C-48.04437762 30.11224927 -47.665265 27.97229277 -47.25 25.25 C-45.9581358 18.43465343 -42.46735912 13.5340445 -37.6875 8.625 C-31.65186916 4.9755488 -26.49409716 3.84172581 -19.4375 4.0625 C-14.20846902 4.21503883 -11.10597512 3.55039026 -6.6484375 0.8984375 C-4.34039007 -0.35950304 -2.56423774 -0.45251254 0 0 Z M-14 40 C-13.01 40 -12.02 40 -11 40 C-11.66 41.65 -12.32 43.3 -13 45 C-13.66 44.67 -14.32 44.34 -15 44 C-14.67 42.68 -14.34 41.36 -14 40 Z " fill="#271914" transform="translate(123,55)"/>
<path d="M0 0 C2.94523996 -0.14480525 5.84564943 -0.12458096 8.79321289 -0.04223633 C9.8122168 -0.04481445 10.8312207 -0.04739258 11.88110352 -0.05004883 C17.45859511 0.02387419 17.45859511 0.02387419 19.73071289 0.45776367 C20.39071289 1.44776367 21.05071289 2.43776367 21.73071289 3.45776367 C19.73071289 4.45776367 19.73071289 4.45776367 13.73071289 4.45776367 C13.73071289 11.71776367 13.73071289 18.97776367 13.73071289 26.45776367 C16.37071289 25.79776367 19.01071289 25.13776367 21.73071289 24.45776367 C24.73071289 24.83276367 24.73071289 24.83276367 27.73071289 25.45776367 C32.04891618 25.76325798 34.99626721 25.94739412 38.73071289 23.45776367 C39.72071289 23.45776367 40.71071289 23.45776367 41.73071289 23.45776367 C41.73071289 24.11776367 41.73071289 24.77776367 41.73071289 25.45776367 C42.39071289 25.45776367 43.05071289 25.45776367 43.73071289 25.45776367 C43.73071289 26.11776367 43.73071289 26.77776367 43.73071289 27.45776367 C45.71071289 27.12776367 47.69071289 26.79776367 49.73071289 26.45776367 C50.06071289 23.81776367 50.39071289 21.17776367 50.73071289 18.45776367 C52.38071289 18.45776367 54.03071289 18.45776367 55.73071289 18.45776367 C55.73071289 21.42776367 55.73071289 24.39776367 55.73071289 27.45776367 C57.05586914 27.37397461 58.38102539 27.29018555 59.74633789 27.20385742 C61.49111061 27.10067194 63.23590337 26.99782504 64.98071289 26.89526367 C65.8534082 26.83918945 66.72610352 26.78311523 67.62524414 26.7253418 C68.46958008 26.67700195 69.31391602 26.62866211 70.18383789 26.57885742 C70.95888672 26.53172607 71.73393555 26.48459473 72.5324707 26.43603516 C74.73071289 26.45776367 74.73071289 26.45776367 76.81958008 26.98144531 C79.57776106 27.66887647 81.95961756 26.93969329 84.73071289 26.45776367 C85.39071289 26.78776367 86.05071289 27.11776367 86.73071289 27.45776367 C88.73031301 27.49775567 90.73118531 27.50123166 92.73071289 27.45776367 C92.99883789 26.57088867 93.26696289 25.68401367 93.54321289 24.77026367 C94.73071289 21.45776367 94.73071289 21.45776367 96.41821289 18.89526367 C97.96331743 16.54997884 97.96331743 16.54997884 97.54321289 13.95776367 C96.71288574 11.4029109 95.78890952 8.92688914 94.73071289 6.45776367 C98.29566048 9.65707561 100.3839006 11.60239158 100.73071289 16.45776367 C99.73461914 18.91479492 99.73461914 18.91479492 98.29321289 21.27026367 C97.58358398 22.45555664 97.58358398 22.45555664 96.85961914 23.66479492 C96.48708008 24.25647461 96.11454102 24.8481543 95.73071289 25.45776367 C96.87540039 24.28213867 96.87540039 24.28213867 98.04321289 23.08276367 C100.73071289 20.45776367 100.73071289 20.45776367 103.73071289 18.45776367 C104.34946289 19.26213867 104.96821289 20.06651367 105.60571289 20.89526367 C107.4723533 23.49650886 107.4723533 23.49650886 109.73071289 24.45776367 C109.28018555 23.67852539 109.28018555 23.67852539 108.82055664 22.88354492 C105.73071289 17.21708571 105.73071289 17.21708571 105.73071289 13.83276367 C107.02844512 10.75064963 108.77936258 8.16447539 110.73071289 5.45776367 C106.99432073 6.70322772 106.54314776 8.0918132 104.73071289 11.45776367 C103.74071289 11.12776367 102.75071289 10.79776367 101.73071289 10.45776367 C100.54321289 7.89526367 100.54321289 7.89526367 99.73071289 5.45776367 C97.42071289 5.12776367 95.11071289 4.79776367 92.73071289 4.45776367 C92.40071289 5.11776367 92.07071289 5.77776367 91.73071289 6.45776367 C91.73071289 5.79776367 91.73071289 5.13776367 91.73071289 4.45776367 C89.42071289 4.12776367 87.11071289 3.79776367 84.73071289 3.45776367 C84.73071289 3.12776367 84.73071289 2.79776367 84.73071289 2.45776367 C90.60299962 0.6751052 94.69587743 0.20917702 100.73071289 1.45776367 C101.72071289 2.44776367 101.72071289 2.44776367 102.73071289 3.45776367 C103.39071289 2.79776367 104.05071289 2.13776367 104.73071289 1.45776367 C107.11352539 1.26245117 107.11352539 1.26245117 109.85571289 1.33276367 C110.76579102 1.35081055 111.67586914 1.36885742 112.61352539 1.38745117 C113.31219727 1.4106543 114.01086914 1.43385742 114.73071289 1.45776367 C115.61926453 4.45330005 115.92677086 5.974154 114.73461914 8.91479492 C114.25895508 9.69209961 113.78329102 10.4694043 113.29321289 11.27026367 C112.58358398 12.45555664 112.58358398 12.45555664 111.85961914 13.66479492 C111.48708008 14.25647461 111.11454102 14.8481543 110.73071289 15.45776367 C111.09165039 15.8934668 111.45258789 16.32916992 111.82446289 16.77807617 C114.27792115 19.92668093 115.65541493 21.78008205 116.10571289 25.83276367 C115.73071289 28.45776367 115.73071289 28.45776367 114.73071289 29.45776367 C107.36437626 29.9330112 107.36437626 29.9330112 104.73071289 27.95776367 C104.40071289 27.46276367 104.07071289 26.96776367 103.73071289 26.45776367 C103.31821289 26.93213867 102.90571289 27.40651367 102.48071289 27.89526367 C99.48433482 30.57060124 96.18904564 30.59626742 92.29321289 30.58276367 C91.18139648 30.58663086 91.18139648 30.58663086 90.04711914 30.59057617 C87.73071289 30.45776367 87.73071289 30.45776367 85.31274414 29.95776367 C79.36570388 28.80614317 73.00481564 29.11086664 67.04321289 30.02026367 C62.86510384 30.5720894 58.84583252 30.42159006 54.73071289 29.45776367 C54.07071289 28.79776367 53.41071289 28.13776367 52.73071289 27.45776367 C52.07071289 28.11776367 51.41071289 28.77776367 50.73071289 29.45776367 C46.59073722 29.65490537 43.65367722 29.76541845 39.73071289 28.45776367 C39.17383789 28.76713867 38.61696289 29.07651367 38.04321289 29.39526367 C34.64665397 30.9558448 31.41448108 30.86115151 27.73071289 30.45776367 C26.3827386 29.82122025 25.04474565 29.16170979 23.73071289 28.45776367 C21.74579647 28.72452571 21.74579647 28.72452571 19.73071289 29.45776367 C16.25447697 30.2857886 13.21250975 30.53344571 9.64868164 30.33666992 C8.71733398 30.28833008 7.78598633 30.23999023 6.82641602 30.19018555 C5.86670898 30.13411133 4.90700195 30.07803711 3.91821289 30.02026367 C2.44964844 29.94195312 2.44964844 29.94195312 0.95141602 29.86206055 C-1.45584801 29.73289028 -3.86264349 29.59794725 -6.26928711 29.45776367 C-5.93928711 28.79776367 -5.60928711 28.13776367 -5.26928711 27.45776367 C-4.55901367 27.46936523 -3.84874023 27.4809668 -3.11694336 27.49291992 C-2.1978418 27.50194336 -1.27874023 27.5109668 -0.33178711 27.52026367 C1.04299805 27.53766602 1.04299805 27.53766602 2.44555664 27.55541992 C4.69664616 27.71725416 4.69664616 27.71725416 5.73071289 26.45776367 C7.38071289 26.45776367 9.03071289 26.45776367 10.73071289 26.45776367 C10.73071289 19.19776367 10.73071289 11.93776367 10.73071289 4.45776367 C9.08071289 4.45776367 7.43071289 4.45776367 5.73071289 4.45776367 C5.73071289 3.79776367 5.73071289 3.13776367 5.73071289 2.45776367 C3.42071289 2.78776367 1.11071289 3.11776367 -1.26928711 3.45776367 C-1.59928711 5.43776367 -1.92928711 7.41776367 -2.26928711 9.45776367 C-4.64428711 9.64526367 -4.64428711 9.64526367 -7.26928711 9.45776367 C-7.92928711 8.46776367 -8.58928711 7.47776367 -9.26928711 6.45776367 C-8.67116211 6.39588867 -8.07303711 6.33401367 -7.45678711 6.27026367 C-6.73491211 6.00213867 -6.01303711 5.73401367 -5.26928711 5.45776367 C-4.95733398 4.62631836 -4.64538086 3.79487305 -4.32397461 2.93823242 C-2.26928711 0.45776367 -2.26928711 0.45776367 0 0 Z M52.73071289 19.45776367 C53.73071289 21.45776367 53.73071289 21.45776367 53.73071289 21.45776367 Z " fill="#140502" transform="translate(63.269287109375,107.542236328125)"/>
<path d="M0 0 C2.64 0 5.28 0 8 0 C8 0.66 8 1.32 8 2 C9.65 2 11.3 2 13 2 C13 9.26 13 16.52 13 24 C11.35 24 9.7 24 8 24 C7.67 24.66 7.34 25.32 7 26 C-4.78998609 26.11926287 -4.78998609 26.11926287 -7.71875 23.41015625 C-8.75 21.5 -8.75 21.5 -10 18 C-10.33 17.67 -10.66 17.34 -11 17 C-11.33 19.31 -11.66 21.62 -12 24 C-13.32 24 -14.64 24 -16 24 C-16 16.74 -16 9.48 -16 2 C-14.35 2 -12.7 2 -11 2 C-10.67 3.65 -10.34 5.3 -10 7 C-9.67 5.02 -9.34 3.04 -9 1 C-8.34 1.99 -7.68 2.98 -7 4 C-4.69855891 5.07136051 -2.3659787 6.07989717 0 7 C0 4.69 0 2.38 0 0 Z " fill="#293234" transform="translate(61,110)"/>
<path d="M0 0 C0.59835469 6.88107892 -1.09966759 13.44117375 -5.53125 18.87890625 C-6.0571875 19.43449219 -6.583125 19.99007812 -7.125 20.5625 C-10.17595822 23.78976988 -10.94032186 26.64123933 -11.578125 30.984375 C-12 33 -12 33 -14 36 C-14.66 36 -15.32 36 -16 36 C-16.33 34.02 -16.66 32.04 -17 30 C-17.763125 29.9175 -18.52625 29.835 -19.3125 29.75 C-22 29 -22 29 -23.4375 26.9375 C-24.2109375 25.9784375 -24.2109375 25.9784375 -25 25 C-28.12586875 24.66602213 -28.12586875 24.66602213 -31 25 C-29.375 22.125 -29.375 22.125 -27 19 C-26.071875 18.7525 -25.14375 18.505 -24.1875 18.25 C-20.40968446 16.76850371 -19.838449 15.59592066 -17.6875 12.25 C-13.86372407 6.35216704 -7.46571171 0 0 0 Z " fill="#F3F3EF" transform="translate(121,59)"/>
<path d="M0 0 C0.98484375 0.01804688 1.9696875 0.03609375 2.984375 0.0546875 C4.10585937 0.08949219 4.10585937 0.08949219 5.25 0.125 C5.25 0.785 5.25 1.445 5.25 2.125 C4.66992188 2.15078125 4.08984375 2.1765625 3.4921875 2.203125 C-3.3743812 2.70168774 -7.40323079 4.46109981 -12.0625 9.75 C-14.75587148 13.54067097 -14.86184417 15.61164774 -14.8125 20.25 C-14.79896484 21.89355469 -14.79896484 21.89355469 -14.78515625 23.5703125 C-14.77355469 24.41335937 -14.76195313 25.25640625 -14.75 26.125 C-14.45738281 25.47917969 -14.16476563 24.83335938 -13.86328125 24.16796875 C-12.75 22.125 -12.75 22.125 -10.9375 21.4375 C-10.215625 21.334375 -9.49375 21.23125 -8.75 21.125 C-7.8425 20.939375 -6.935 20.75375 -6 20.5625 C-5.2575 20.418125 -4.515 20.27375 -3.75 20.125 C-3.440625 21.0840625 -3.440625 21.0840625 -3.125 22.0625 C-1.85461791 24.47425077 -1.85461791 24.47425077 1.375 24.875 C2.32375 24.9575 3.2725 25.04 4.25 25.125 C3.92 27.765 3.59 30.405 3.25 33.125 C4.24 33.785 5.23 34.445 6.25 35.125 C6.25 35.785 6.25 36.445 6.25 37.125 C2.2686217 38.4521261 -1.60045227 38.19415913 -5.75 38.125 C-6.41 36.805 -7.07 35.485 -7.75 34.125 C-5.275 31.155 -5.275 31.155 -2.75 28.125 C-3.41 27.465 -4.07 26.805 -4.75 26.125 C-5.47316406 26.75728516 -5.47316406 26.75728516 -6.2109375 27.40234375 C-6.84257813 27.95019531 -7.47421875 28.49804688 -8.125 29.0625 C-8.75148438 29.60777344 -9.37796875 30.15304688 -10.0234375 30.71484375 C-13.15440322 33.27203521 -15.80053458 33.52397234 -19.83984375 33.47265625 C-21.75 33.125 -21.75 33.125 -23.75 30.9375 C-24.75740369 28.10417713 -25.00526029 26.10303669 -24.75 23.125 C-24.09 23.125 -23.43 23.125 -22.75 23.125 C-22.81445312 22.23941406 -22.87890625 21.35382813 -22.9453125 20.44140625 C-22.58746946 14.36523151 -18.25927452 9.66969958 -14.08984375 5.44140625 C-9.44962522 1.44203632 -6.11697926 -0.14564236 0 0 Z " fill="#1B2528" transform="translate(100.75,62.875)"/>
<path d="M0 0 C2.94523996 -0.14480525 5.84564943 -0.12458096 8.79321289 -0.04223633 C9.8122168 -0.04481445 10.8312207 -0.04739258 11.88110352 -0.05004883 C17.45859511 0.02387419 17.45859511 0.02387419 19.73071289 0.45776367 C20.39071289 1.44776367 21.05071289 2.43776367 21.73071289 3.45776367 C19.73071289 4.45776367 19.73071289 4.45776367 13.73071289 4.45776367 C13.73071289 11.71776367 13.73071289 18.97776367 13.73071289 26.45776367 C16.37071289 25.79776367 19.01071289 25.13776367 21.73071289 24.45776367 C24.73071289 24.83276367 24.73071289 24.83276367 27.73071289 25.45776367 C32.04891618 25.76325798 34.99626721 25.94739412 38.73071289 23.45776367 C39.72071289 23.45776367 40.71071289 23.45776367 41.73071289 23.45776367 C41.73071289 24.11776367 41.73071289 24.77776367 41.73071289 25.45776367 C42.39071289 25.45776367 43.05071289 25.45776367 43.73071289 25.45776367 C43.73071289 26.11776367 43.73071289 26.77776367 43.73071289 27.45776367 C45.71071289 27.12776367 47.69071289 26.79776367 49.73071289 26.45776367 C50.06071289 23.81776367 50.39071289 21.17776367 50.73071289 18.45776367 C52.38071289 18.45776367 54.03071289 18.45776367 55.73071289 18.45776367 C55.73071289 21.42776367 55.73071289 24.39776367 55.73071289 27.45776367 C60.02071289 27.45776367 64.31071289 27.45776367 68.73071289 27.45776367 C68.73071289 27.78776367 68.73071289 28.11776367 68.73071289 28.45776367 C64.18423391 29.63104857 59.40043995 29.99904834 54.73071289 29.45776367 C54.07071289 28.79776367 53.41071289 28.13776367 52.73071289 27.45776367 C52.07071289 28.11776367 51.41071289 28.77776367 50.73071289 29.45776367 C46.59073722 29.65490537 43.65367722 29.76541845 39.73071289 28.45776367 C39.17383789 28.76713867 38.61696289 29.07651367 38.04321289 29.39526367 C34.64665397 30.9558448 31.41448108 30.86115151 27.73071289 30.45776367 C26.3827386 29.82122025 25.04474565 29.16170979 23.73071289 28.45776367 C21.74579647 28.72452571 21.74579647 28.72452571 19.73071289 29.45776367 C16.25447697 30.2857886 13.21250975 30.53344571 9.64868164 30.33666992 C8.71733398 30.28833008 7.78598633 30.23999023 6.82641602 30.19018555 C5.86670898 30.13411133 4.90700195 30.07803711 3.91821289 30.02026367 C2.44964844 29.94195312 2.44964844 29.94195312 0.95141602 29.86206055 C-1.45584801 29.73289028 -3.86264349 29.59794725 -6.26928711 29.45776367 C-5.93928711 28.79776367 -5.60928711 28.13776367 -5.26928711 27.45776367 C-4.55901367 27.46936523 -3.84874023 27.4809668 -3.11694336 27.49291992 C-2.1978418 27.50194336 -1.27874023 27.5109668 -0.33178711 27.52026367 C1.04299805 27.53766602 1.04299805 27.53766602 2.44555664 27.55541992 C4.69664616 27.71725416 4.69664616 27.71725416 5.73071289 26.45776367 C7.38071289 26.45776367 9.03071289 26.45776367 10.73071289 26.45776367 C10.73071289 19.19776367 10.73071289 11.93776367 10.73071289 4.45776367 C9.08071289 4.45776367 7.43071289 4.45776367 5.73071289 4.45776367 C5.73071289 3.79776367 5.73071289 3.13776367 5.73071289 2.45776367 C3.42071289 2.78776367 1.11071289 3.11776367 -1.26928711 3.45776367 C-1.59928711 5.43776367 -1.92928711 7.41776367 -2.26928711 9.45776367 C-4.64428711 9.64526367 -4.64428711 9.64526367 -7.26928711 9.45776367 C-7.92928711 8.46776367 -8.58928711 7.47776367 -9.26928711 6.45776367 C-8.67116211 6.39588867 -8.07303711 6.33401367 -7.45678711 6.27026367 C-6.73491211 6.00213867 -6.01303711 5.73401367 -5.26928711 5.45776367 C-4.95733398 4.62631836 -4.64538086 3.79487305 -4.32397461 2.93823242 C-2.26928711 0.45776367 -2.26928711 0.45776367 0 0 Z M52.73071289 19.45776367 C53.73071289 21.45776367 53.73071289 21.45776367 53.73071289 21.45776367 Z " fill="#1C0703" transform="translate(63.269287109375,107.542236328125)"/>
<path d="M0 0 C3.11141288 1.6437653 5.28893717 3.03036886 7.375 5.875 C8.23855538 8.81108828 8.36658209 10.94514926 8 14 C5.96006092 17.6578218 4.49580738 19.66946174 1 22 C-5.6352892 22.76142663 -5.6352892 22.76142663 -8.8203125 20.984375 C-12.71200159 17.86350355 -13.81991611 15.59074105 -14.375 10.6875 C-13.87765929 5.79698299 -12.42915508 4.42915508 -9 1 C-5.89046621 -0.5547669 -3.43733239 -0.28644437 0 0 Z " fill="#DEE2E0" transform="translate(98,112)"/>
<path d="M0 0 C2 2 2 2 2.22705078 4.24658203 C2.21657715 5.15778809 2.20610352 6.06899414 2.1953125 7.0078125 C2.18886719 7.99394531 2.18242188 8.98007813 2.17578125 9.99609375 C2.15902344 11.02863281 2.14226562 12.06117187 2.125 13.125 C2.11597656 14.16527344 2.10695313 15.20554687 2.09765625 16.27734375 C2.07403747 18.85179092 2.04110149 21.42578212 2 24 C2.9075 23.79375 3.815 23.5875 4.75 23.375 C8 23 8 23 12 25 C8.37 25 4.74 25 1 25 C0.04095144 21.16380575 0.08107884 19.67568464 1 16 C-0.65 16 -2.3 16 -4 16 C-3.979375 17.299375 -3.95875 18.59875 -3.9375 19.9375 C-3.91600546 21.29165633 -3.92851801 22.64756083 -4 24 C-5 25 -5 25 -8.0625 25.0625 C-9.031875 25.041875 -10.00125 25.02125 -11 25 C-11 24.34 -11 23.68 -11 23 C-11.66 23 -12.32 23 -13 23 C-13 22.34 -13 21.68 -13 21 C-13.66 20.67 -14.32 20.34 -15 20 C-14.67 19.46375 -14.34 18.9275 -14 18.375 C-11.66834294 12.83731448 -13.47541374 7.52662521 -15 2 C-7.575 2.99 -7.575 2.99 0 4 C0 2.68 0 1.36 0 0 Z " fill="#1D1F1E" transform="translate(118,110)"/>
<path d="M0 0 C1.65 0 3.3 0 5 0 C5.33 1.98 5.66 3.96 6 6 C7.60875 5.87625 7.60875 5.87625 9.25 5.75 C13 6 13 6 15.4375 7.5625 C17.63021887 10.98314143 17.63007693 13.00951279 17 17 C15.25 19.9375 15.25 19.9375 12 22 C7.90371684 22.41548776 4.13721629 22.22731958 0 22 C0 14.74 0 7.48 0 0 Z " fill="#EEEEEB" transform="translate(120,112)"/>
<path d="M0 0 C2.0625 0.4375 2.0625 0.4375 4 1 C4 1.99 4 2.98 4 4 C5.65 4 7.3 4 9 4 C9 5.65 9 7.3 9 9 C9.99 9 10.98 9 12 9 C12 9.99 12 10.98 12 12 C11.01 12 10.02 12 9 12 C9 14.97 9 17.94 9 21 C10.32 21 11.64 21 13 21 C13 22.32 13 23.64 13 25 C7.59662289 25.36022514 7.59662289 25.36022514 5.34375 24 C3.23796675 20.86581098 3.42440511 17.47339574 3.3125 13.8125 C3.27833984 13.06291016 3.24417969 12.31332031 3.20898438 11.54101562 C3.12665706 9.69453162 3.06164719 7.84729006 3 6 C0.56164332 7.99103192 0.56164332 7.99103192 0.8046875 11.9140625 C0.81799624 13.48449351 0.84186398 15.05486221 0.875 16.625 C0.88853516 17.82769531 0.88853516 17.82769531 0.90234375 19.0546875 C0.92593777 21.03658523 0.96180935 23.01832981 1 25 C-0.65 25 -2.3 25 -4 25 C-4.06058594 23.95199219 -4.12117187 22.90398437 -4.18359375 21.82421875 C-4.26801738 20.44529952 -4.35266447 19.06639395 -4.4375 17.6875 C-4.47681641 16.99720703 -4.51613281 16.30691406 -4.55664062 15.59570312 C-4.74927415 12.52838465 -5.02322717 9.93031848 -6 7 C-6 5.68 -6 4.36 -6 3 C-5.195625 2.690625 -4.39125 2.38125 -3.5625 2.0625 C-1.10919595 1.23664655 -1.10919595 1.23664655 0 0 Z " fill="#35332D" transform="translate(143,109)"/>
<path d="M0 0 C0.66 0.33 1.32 0.66 2 1 C2 4 2 4 -0.1875 6.25 C-1.115625 7.1575 -2.04375 8.065 -3 9 C-3.83061032 10.21700183 -4.64294731 11.44665635 -5.4375 12.6875 C-7.81309204 16.16470727 -9.93888953 16.85229487 -14 18 C-16.47730384 20.55988064 -17 21.38813866 -17 25 C-17.639375 25.103125 -18.27875 25.20625 -18.9375 25.3125 C-19.9584375 25.6528125 -19.9584375 25.6528125 -21 26 C-21.33 26.99 -21.66 27.98 -22 29 C-22.33 29 -22.66 29 -23 29 C-23.62272262 17.34124872 -23.62272262 17.34124872 -21.375 12.5 C-13.40301744 4.10843942 -13.40301744 4.10843942 -8.8359375 3.90234375 C-7.61777344 3.91974609 -7.61777344 3.91974609 -6.375 3.9375 C-5.14910156 3.95103516 -5.14910156 3.95103516 -3.8984375 3.96484375 C-2.95871094 3.98224609 -2.95871094 3.98224609 -2 4 C-2 3.34 -2 2.68 -2 2 C-1.34 2 -0.68 2 0 2 C0 1.34 0 0.68 0 0 Z " fill="#16252B" transform="translate(108,61)"/>
<path d="M0 0 C0.66 0 1.32 0 2 0 C3.65247981 3.30495961 3.7694644 6.45674053 3 10 C0.08715762 14.50530291 -3.66913003 17.88598951 -8 21 C-7.01 21.33 -6.02 21.66 -5 22 C-4.01 21.34 -3.02 20.68 -2 20 C-3.19161049 24.63404081 -5.46655266 26.4048178 -9.24609375 28.984375 C-12.93205304 31.1187835 -16.20170662 31.19270078 -20.375 31.25 C-21.49648437 31.27578125 -22.61796875 31.3015625 -23.7734375 31.328125 C-27.29106057 30.97040062 -29.14765975 30.02975523 -32 28 C-30 26 -30 26 -26.3046875 25.8046875 C-24.82799892 25.817991 -23.35137642 25.84185165 -21.875 25.875 C-21.12089844 25.88402344 -20.36679688 25.89304687 -19.58984375 25.90234375 C-17.72642746 25.9259313 -15.86317407 25.96180281 -14 26 C-14 25.34 -14 24.68 -14 24 C-15.32 23.34 -16.64 22.68 -18 22 C-17.34 20.68 -16.68 19.36 -16 18 C-16 18.99 -16 19.98 -16 21 C-15.34 21 -14.68 21 -14 21 C-13.67 20.01 -13.34 19.02 -13 18 C-12.67 18.66 -12.34 19.32 -12 20 C-7.19099069 17.13749446 -2.77774927 13.97680077 0 9 C0.46995622 5.92570309 0.37713915 3.07996976 0 0 Z M-12 21 C-12.33 22.65 -12.66 24.3 -13 26 C-12.34 26 -11.68 26 -11 26 C-10.34 24.35 -9.68 22.7 -9 21 C-9.99 21 -10.98 21 -12 21 Z " fill="#263136" transform="translate(121,74)"/>
<path d="M0 0 C2.94523996 -0.14480525 5.84564943 -0.12458096 8.79321289 -0.04223633 C9.8122168 -0.04481445 10.8312207 -0.04739258 11.88110352 -0.05004883 C17.45859511 0.02387419 17.45859511 0.02387419 19.73071289 0.45776367 C20.39071289 1.44776367 21.05071289 2.43776367 21.73071289 3.45776367 C19.73071289 4.45776367 19.73071289 4.45776367 13.73071289 4.45776367 C13.73071289 11.71776367 13.73071289 18.97776367 13.73071289 26.45776367 C15.38071289 26.45776367 17.03071289 26.45776367 18.73071289 26.45776367 C18.40071289 27.11776367 18.07071289 27.77776367 17.73071289 28.45776367 C14.10071289 28.12776367 10.47071289 27.79776367 6.73071289 27.45776367 C8.05071289 27.12776367 9.37071289 26.79776367 10.73071289 26.45776367 C10.73071289 19.19776367 10.73071289 11.93776367 10.73071289 4.45776367 C9.08071289 4.45776367 7.43071289 4.45776367 5.73071289 4.45776367 C5.73071289 3.79776367 5.73071289 3.13776367 5.73071289 2.45776367 C3.42071289 2.78776367 1.11071289 3.11776367 -1.26928711 3.45776367 C-1.59928711 5.43776367 -1.92928711 7.41776367 -2.26928711 9.45776367 C-4.64428711 9.64526367 -4.64428711 9.64526367 -7.26928711 9.45776367 C-7.92928711 8.46776367 -8.58928711 7.47776367 -9.26928711 6.45776367 C-8.67116211 6.39588867 -8.07303711 6.33401367 -7.45678711 6.27026367 C-6.73491211 6.00213867 -6.01303711 5.73401367 -5.26928711 5.45776367 C-4.95733398 4.62631836 -4.64538086 3.79487305 -4.32397461 2.93823242 C-2.26928711 0.45776367 -2.26928711 0.45776367 0 0 Z " fill="#151C1F" transform="translate(63.269287109375,107.542236328125)"/>
<path d="M0 0 C1.21236328 0.04060547 1.21236328 0.04060547 2.44921875 0.08203125 C3.06410156 0.11683594 3.67898437 0.15164062 4.3125 0.1875 C4.6425 1.8375 4.9725 3.4875 5.3125 5.1875 C2.6725 5.1875 0.0325 5.1875 -2.6875 5.1875 C-2.6875 5.8475 -2.6875 6.5075 -2.6875 7.1875 C-2.12160156 7.46464844 -1.55570313 7.74179688 -0.97265625 8.02734375 C-0.23917969 8.38957031 0.49429688 8.75179687 1.25 9.125 C2.34634766 9.66447266 2.34634766 9.66447266 3.46484375 10.21484375 C5.3125 11.1875 5.3125 11.1875 6.3125 12.1875 C6.8914111 18.43973983 6.8914111 18.43973983 4.8125 21.125 C1.0958056 22.70459512 -1.64885341 22.50802751 -5.6875 22.1875 C-6.6775 21.5275 -7.6675 20.8675 -8.6875 20.1875 C-8.0275 18.8675 -7.3675 17.5475 -6.6875 16.1875 C-6.0275 16.5175 -5.3675 16.8475 -4.6875 17.1875 C-2.68789988 17.227492 -0.68702758 17.23096799 1.3125 17.1875 C1.3125 16.1975 1.3125 15.2075 1.3125 14.1875 C-3.1425 12.2075 -3.1425 12.2075 -7.6875 10.1875 C-8.05443548 3.70497312 -8.05443548 3.70497312 -6.46875 1.46875 C-4.16661524 -0.1871715 -2.80531917 -0.1219704 0 0 Z " fill="#E2E3DF" transform="translate(35.6875,111.8125)"/>
<path d="M0 0 C0.66 0.33 1.32 0.66 2 1 C1.79375 1.7425 1.5875 2.485 1.375 3.25 C0.94667786 6.39102902 1.15964647 7.45855941 3 10 C5.0335948 11.26804566 5.0335948 11.26804566 7 12 C1.25 13.125 1.25 13.125 -1 12 C-1 10.68 -1 9.36 -1 8 C-3.3431213 8.25561323 -5.67843403 8.59270772 -8 9 C-8.33 9.66 -8.66 10.32 -9 11 C-9.66 10.67 -10.32 10.34 -11 10 C-10.67 9.34 -10.34 8.68 -10 8 C-10.66 8 -11.32 8 -12 8 C-12 8.66 -12 9.32 -12 10 C-19.75 11 -19.75 11 -22 11 C-22 11.66 -22 12.32 -22 13 C-23.32 12.34 -24.64 11.68 -26 11 C-26 10.34 -26 9.68 -26 9 C-26.66 8.67 -27.32 8.34 -28 8 C-28 7.01 -28 6.02 -28 5 C-28.99 4.67 -29.98 4.34 -31 4 C-30.31292969 4.01160156 -29.62585938 4.02320312 -28.91796875 4.03515625 C-27.56638672 4.04869141 -27.56638672 4.04869141 -26.1875 4.0625 C-24.84751953 4.07990234 -24.84751953 4.07990234 -23.48046875 4.09765625 C-20.86586209 4.11009967 -20.86586209 4.11009967 -18 3 C-18 2.34 -18 1.68 -18 1 C-16.68 1 -15.36 1 -14 1 C-13.67 1.99 -13.34 2.98 -13 4 C-13.99 4.495 -13.99 4.495 -15 5 C-14.401875 4.835 -13.80375 4.67 -13.1875 4.5 C-9.03098983 3.54994053 -5.16289869 4.37163793 -1 5 C-0.67 3.35 -0.34 1.7 0 0 Z " fill="#1A0E04" transform="translate(127,103)"/>
<path d="M0 0 C1.32 0 2.64 0 4 0 C4.33 3.96 4.66 7.92 5 12 C5.7425 11.01 6.485 10.02 7.25 9 C8.515625 7.3125 8.515625 7.3125 10 6 C11.32 6 12.64 6 14 6 C12.79618552 8.49361571 11.54571278 10.68143083 10 13 C10.3609375 13.48210937 10.721875 13.96421875 11.09375 14.4609375 C11.5578125 15.09257813 12.021875 15.72421875 12.5 16.375 C12.9640625 17.00148437 13.428125 17.62796875 13.90625 18.2734375 C15 20 15 20 15 22 C12.8125 22.4375 12.8125 22.4375 10 22 C8.01558218 19.86004673 6.4976696 17.49824035 5 15 C4.67 17.31 4.34 19.62 4 22 C2.68 22 1.36 22 0 22 C0 14.74 0 7.48 0 0 Z " fill="#F0F4F1" transform="translate(45,112)"/>
<path d="M0 0 C1.51953125 1.33203125 1.51953125 1.33203125 3 3 C2.6875 5.6875 2.6875 5.6875 2 9 C2.165 10.2375 2.33 11.475 2.5 12.75 C2.62522271 18.14501188 -1.16231476 21.27339243 -4.640625 24.99609375 C-6.90028859 26.91531133 -8.10847766 27.63524374 -11 28 C-11.10139528 20.25050378 -9.84069845 15.97060461 -4.72265625 10.1484375 C-2.18972118 6.98944818 -1.18811546 3.84390295 0 0 Z " fill="#152227" transform="translate(120,66)"/>
<path d="M0 0 C0.98484375 0.01804688 1.9696875 0.03609375 2.984375 0.0546875 C4.10585937 0.08949219 4.10585937 0.08949219 5.25 0.125 C5.25 0.785 5.25 1.445 5.25 2.125 C4.66992188 2.15078125 4.08984375 2.1765625 3.4921875 2.203125 C-3.3743812 2.70168774 -7.40323079 4.46109981 -12.0625 9.75 C-14.80787004 13.61385413 -14.88556494 15.82412225 -14.875 20.5625 C-14.87886719 22.29306641 -14.87886719 22.29306641 -14.8828125 24.05859375 C-14.88895922 27.16625667 -14.88895922 27.16625667 -13.75 30.125 C-15.4 30.455 -17.05 30.785 -18.75 31.125 C-21.19805567 25.31086778 -22.2640784 18.86145958 -19.83984375 12.87890625 C-15.35195129 5.24515992 -9.11360564 -0.21699061 0 0 Z " fill="#D7DDDD" transform="translate(100.75,62.875)"/>
<path d="M0 0 C1.875 1 1.875 1 3 3 C3.53653931 6.57692871 3.65701652 9.76326302 1.9375 13 C-1.16867275 14.60318593 -3.57990979 14.42751128 -7 14 C-9.62541413 11.79803976 -9.9445448 10.38026421 -10.4375 7 C-10 4 -10 4 -8.375 1.625 C-5.32214079 -0.46379841 -3.63031776 -0.54068562 0 0 Z " fill="#1E2C30" transform="translate(98,116)"/>
<path d="M0 0 C0.66 1.32 1.32 2.64 2 4 C1.34 4.66 0.68 5.32 0 6 C-1.71903016 11.53909717 -2.20647863 16.21859826 -2 22 C-0.6078125 22.680625 -0.6078125 22.680625 0.8125 23.375 C4.93698206 25.47767713 8.50170378 27.97444652 12 31 C12 31.66 12 32.32 12 33 C11.38125 32.731875 10.7625 32.46375 10.125 32.1875 C7.15034654 30.99157963 7.15034654 30.99157963 4.58203125 30.375 C0.49315281 29.3120124 -2.41165063 28.49257157 -5.6875 25.75 C-7.45746988 22.04149169 -6.98602402 19.94409608 -6 16 C-5.33333333 14.33333333 -4.66666667 12.66666667 -4 11 C-3.855625 9.824375 -3.71125 8.64875 -3.5625 7.4375 C-2.99738474 3.98401786 -2.32696685 2.5293118 0 0 Z " fill="#120201" transform="translate(79,74)"/>
<path d="M0 0 C1.32 0 2.64 0 4 0 C4 1.32 4 2.64 4 4 C4.99 4 5.98 4 7 4 C7 4.99 7 5.98 7 7 C6.01 7 5.02 7 4 7 C4 9.97 4 12.94 4 16 C5.32 16 6.64 16 8 16 C8 17.32 8 18.64 8 20 C2.55017301 20.3633218 2.55017301 20.3633218 0.34375 18.90625 C-1.62196 16.11768465 -1.52050726 13.68575333 -1.6875 10.3125 C-1.75324219 9.13300781 -1.81898438 7.95351562 -1.88671875 6.73828125 C-1.92410156 5.83464844 -1.96148437 4.93101563 -2 4 C-1.34 4 -0.68 4 0 4 C0 2.68 0 1.36 0 0 Z " fill="#EDF0ED" transform="translate(148,114)"/>
<path d="M0 0 C0.76699219 -0.00773437 1.53398438 -0.01546875 2.32421875 -0.0234375 C7.99650022 -0.00349978 7.99650022 -0.00349978 10.25 2.25 C10.5 5.75 10.5 5.75 10.25 9.25 C9.59 9.91 8.93 10.57 8.25 11.25 C8.25 8.94 8.25 6.63 8.25 4.25 C7.63253906 4.3221875 7.01507813 4.394375 6.37890625 4.46875 C1.22324438 5.03375404 -3.75325427 5.32128329 -8.9375 5.08984375 C-11.00513745 5.07705516 -11.00513745 5.07705516 -12.75 7.25 C-13.39767793 9.82061311 -13.39767793 9.82061311 -13.75 12.25 C-14.08 12.25 -14.41 12.25 -14.75 12.25 C-14.75 10.6 -14.75 8.95 -14.75 7.25 C-15.41 7.25 -16.07 7.25 -16.75 7.25 C-16.125 4.875 -16.125 4.875 -14.75 2.25 C-9.84381769 0.030896 -5.27364113 -0.05427418 0 0 Z " fill="#26100B" transform="translate(41.75,107.75)"/>
<path d="M0 0 C1.32 0 2.64 0 4 0 C4 7.26 4 14.52 4 22 C2.35 22 0.7 22 -1 22 C-1 17.38 -1 12.76 -1 8 C-1.66 8 -2.32 8 -3 8 C-2.45276317 4.62537285 -1.9451 2.91765 0 0 Z " fill="#919899" transform="translate(63,112)"/>
<path d="M0 0 C0.99 0.33 1.98 0.66 3 1 C2.67 1.99 2.34 2.98 2 4 C1.01 4 0.02 4 -1 4 C-0.484375 4.7425 0.03125 5.485 0.5625 6.25 C2 9 2 9 1 13 C-2.3 13 -5.6 13 -9 13 C-9 13.66 -9 14.32 -9 15 C-10.65 15.33 -12.3 15.66 -14 16 C-10.85524651 9.03097342 -6.86974049 3.67929922 0 0 Z " fill="#E2E6E5" transform="translate(114,61)"/>
<path d="M0 0 C0 7.26 0 14.52 0 22 C-0.33 22 -0.66 22 -1 22 C-1.33 20.35 -1.66 18.7 -2 17 C-2.33 17 -2.66 17 -3 17 C-3.165 16.0925 -3.33 15.185 -3.5 14.25 C-5.57961505 9.74416738 -8.53527991 8.76512189 -13 7 C-12.67 6.01 -12.34 5.02 -12 4 C-6.25 3.875 -6.25 3.875 -4 5 C-4 3.68 -4 2.36 -4 1 C-1 0 -1 0 0 0 Z " fill="#242E31" transform="translate(45,112)"/>
<path d="M0 0 C3.3 0 6.6 0 10 0 C10 1.32 10 2.64 10 4 C8.68 4.33 7.36 4.66 6 5 C5.67 8.63 5.34 12.26 5 16 C3.35 16 1.7 16 0 16 C0 10.72 0 5.44 0 0 Z " fill="#D1D4D1" transform="translate(108,118)"/>
<path d="M0 0 C0.99 0.99 1.98 1.98 3 3 C-2.2688172 9.92473118 -2.2688172 9.92473118 -7 11 C-11.17429987 11.41218401 -14.71033509 11.59764959 -18.5625 9.8125 C-20.4433581 7.44098326 -20.31898502 5.95061143 -20 3 C-19.67 3.66 -19.34 4.32 -19 5 C-17.01424714 7.3918563 -17.01424714 7.3918563 -13.1875 7.5 C-8.01664014 7.24335806 -4.83030323 4.70828302 -1.125 1.25 C-0.75375 0.8375 -0.3825 0.425 0 0 Z " fill="#E4E8E6" transform="translate(96,88)"/>
<path d="M0 0 C0 3 0 3 -2.125 5.5 C-8.25415108 10.82969659 -12.93854404 11.34232187 -20.87890625 11.3984375 C-24.2919293 10.96273243 -26.21057345 9.96350696 -29 8 C-28.34 7.34 -27.68 6.68 -27 6 C-24.994845 6.30077325 -22.99601306 6.6435691 -21 7 C-14.53522975 7.48991669 -9.70178935 7.19300204 -4 4 C-1.62208021 1.95955036 -1.62208021 1.95955036 0 0 Z " fill="#E1E5E3" transform="translate(118,94)"/>
<path d="M0 0 C1.32 0 2.64 0 4 0 C4 6.93 4 13.86 4 21 C2.68 21 1.36 21 0 21 C0 14.07 0 7.14 0 0 Z " fill="#E3E5E4" transform="translate(77,112)"/>
<path d="M0 0 C1.32 0 2.64 0 4 0 C4 6.93 4 13.86 4 21 C2.68 21 1.36 21 0 21 C0 14.07 0 7.14 0 0 Z " fill="#F1F3F0" transform="translate(70,112)"/>
<path d="M0 0 C0.66 0.66 1.32 1.32 2 2 C1.67889311 5.53217579 1.12183498 8.63449506 0 12 C-0.99 12.495 -0.99 12.495 -2 13 C-2.65213292 15.02463255 -2.65213292 15.02463255 -3 17 C-3.99 17 -4.98 17 -6 17 C-6 16.34 -6 15.68 -6 15 C-6.99 14.67 -7.98 14.34 -9 14 C-7.5459375 13.1028125 -7.5459375 13.1028125 -6.0625 12.1875 C-2.76947958 10.28872491 -2.76947958 10.28872491 -2 7 C-2.99 7.495 -2.99 7.495 -4 8 C-4.99 7.01 -5.98 6.02 -7 5 C-4.69 3.35 -2.38 1.7 0 0 Z M-10 6 C-9.01 6 -8.02 6 -7 6 C-7.66 7.65 -8.32 9.3 -9 11 C-9.66 10.67 -10.32 10.34 -11 10 C-10.67 8.68 -10.34 7.36 -10 6 Z " fill="#2C2A29" transform="translate(119,89)"/>
<path d="M0 0 C1.51953125 1.33203125 1.51953125 1.33203125 3 3 C2.6875 5.6875 2.6875 5.6875 2 9 C2.01851198 10.39633238 2.06089233 11.7925172 2.125 13.1875 C2 17 2 17 0.5 19 C0.005 19.33 -0.49 19.66 -1 20 C-1 19.01 -1 18.02 -1 17 C-2.32 17.33 -3.64 17.66 -5 18 C-4.67 16.35 -4.34 14.7 -4 13 C-4.99 13.495 -4.99 13.495 -6 14 C-5.71382813 13.44828125 -5.42765625 12.8965625 -5.1328125 12.328125 C-3.92260849 9.84094711 -2.8904694 7.32252247 -1.875 4.75 C-1.52179688 3.85796875 -1.16859375 2.9659375 -0.8046875 2.046875 C-0.53914063 1.37140625 -0.27359375 0.6959375 0 0 Z " fill="#15252C" transform="translate(120,66)"/>
<path d="M0 0 C0.56131481 6.45512034 -1.36536213 11.15439723 -4 17 C-4.99 17 -5.98 17 -7 17 C-6.814375 16.05125 -6.62875 15.1025 -6.4375 14.125 C-5.71313368 11.10131207 -5.71313368 11.10131207 -7 9 C-7.99 8.34 -8.98 7.68 -10 7 C-9.01 6.01 -8.02 5.02 -7 4 C-7 4.66 -7 5.32 -7 6 C-6.34 5.67 -5.68 5.34 -5 5 C-5 3.68 -5 2.36 -5 1 C-3 0 -3 0 0 0 Z " fill="#F2F2EE" transform="translate(121,59)"/>
<path d="M0 0 C-1.20381448 2.49361571 -2.45428722 4.68143083 -4 7 C-3.6390625 7.48210937 -3.278125 7.96421875 -2.90625 8.4609375 C-2.4421875 9.09257813 -1.978125 9.72421875 -1.5 10.375 C-1.0359375 11.00148437 -0.571875 11.62796875 -0.09375 12.2734375 C1 14 1 14 1 16 C-1.29296875 16.28125 -1.29296875 16.28125 -4 16 C-5.80078125 14.03125 -5.80078125 14.03125 -7.3125 11.5 C-8.08013672 10.24703125 -8.08013672 10.24703125 -8.86328125 8.96875 C-9.23839844 8.3190625 -9.61351562 7.669375 -10 7 C-9.09827532 5.82174642 -8.17798498 4.65768423 -7.25 3.5 C-6.73953125 2.8503125 -6.2290625 2.200625 -5.703125 1.53125 C-4 0 -4 0 0 0 Z " fill="#D7D8D7" transform="translate(59,118)"/>
<path d="M0 0 C0.66 0.33 1.32 0.66 2 1 C1.938125 1.78375 1.87625 2.5675 1.8125 3.375 C1.874375 4.24125 1.93625 5.1075 2 6 C2.99 6.66 3.98 7.32 5 8 C5 8.66 5 9.32 5 10 C1.0186217 11.3271261 -2.85045227 11.06915913 -7 11 C-7.66 9.68 -8.32 8.36 -9 7 C-2.25 3 -2.25 3 0 3 C0 2.01 0 1.02 0 0 Z " fill="#0F2026" transform="translate(102,90)"/>
<path d="M0 0 C-1.25 2 -1.25 2 -3 4 C-4.32 4 -5.64 4 -7 4 C-6.690625 5.175625 -6.690625 5.175625 -6.375 6.375 C-6.25125 7.24125 -6.1275 8.1075 -6 9 C-6.66 9.66 -7.32 10.32 -8 11 C-8.33 10.67 -8.66 10.34 -9 10 C-9.99 10.495 -9.99 10.495 -11 11 C-13.6723621 11.13415472 -16.32250488 11.04318541 -19 11 C-19 8.69 -19 6.38 -19 4 C-20.65 4 -22.3 4 -24 4 C-24 3.67 -24 3.34 -24 3 C-22.02 3 -20.04 3 -18 3 C-17.67 3.99 -17.34 4.98 -17 6 C-14.17884816 7.07009208 -12.09455459 7 -9 7 C-8.896875 6.21625 -8.79375 5.4325 -8.6875 4.625 C-7.42677784 -0.18866644 -4.38049352 -0.23678343 0 0 Z " fill="#39352D" transform="translate(144,108)"/>
<path d="M0 0 C1.32 0.66 2.64 1.32 4 2 C4.36391205 9.39954511 4.36391205 9.39954511 2.75 12.0625 C1 13 1 13 -1.1875 12.6875 C-1.785625 12.460625 -2.38375 12.23375 -3 12 C-4.125 6.25 -4.125 6.25 -3 4 C-2.01 4 -1.02 4 0 4 C0 2.68 0 1.36 0 0 Z " fill="#15242B" transform="translate(97,117)"/>
<path d="M0 0 C1.5159375 0.2475 1.5159375 0.2475 3.0625 0.5 C3.0625 1.16 3.0625 1.82 3.0625 2.5 C2.155 3.098125 1.2475 3.69625 0.3125 4.3125 C-3.42916151 6.83092602 -5.91834917 9.46169835 -7.9375 13.5 C-10.5 14.125 -10.5 14.125 -12.9375 14.5 C-11.37601062 7.56004718 -7.34049128 0.93212588 0 0 Z " fill="#2F1E16" transform="translate(89.9375,62.5)"/>
<path d="M0 0 C1.32 0 2.64 0 4 0 C4.33 0.99 4.66 1.98 5 3 C1.44360764 5.30119506 -1.94718288 6.77472971 -6 8 C-5.34 9.32 -4.68 10.64 -4 12 C-5.32 11.34 -6.64 10.68 -8 10 C-8 9.34 -8 8.68 -8 8 C-8.66 7.67 -9.32 7.34 -10 7 C-10 6.01 -10 5.02 -10 4 C-10.99 3.67 -11.98 3.34 -13 3 C-12.31292969 3.01160156 -11.62585938 3.02320312 -10.91796875 3.03515625 C-9.56638672 3.04869141 -9.56638672 3.04869141 -8.1875 3.0625 C-6.84751953 3.07990234 -6.84751953 3.07990234 -5.48046875 3.09765625 C-2.86586209 3.11009967 -2.86586209 3.11009967 0 2 C0 1.34 0 0.68 0 0 Z " fill="#150C06" transform="translate(109,104)"/>
<path d="M0 0 C1.21816406 0.03480469 1.21816406 0.03480469 2.4609375 0.0703125 C3.68683594 0.09738281 3.68683594 0.09738281 4.9375 0.125 C5.87722656 0.15980469 5.87722656 0.15980469 6.8359375 0.1953125 C7.1659375 1.8453125 7.4959375 3.4953125 7.8359375 5.1953125 C5.1959375 5.1953125 2.5559375 5.1953125 -0.1640625 5.1953125 C-0.1640625 6.8453125 -0.1640625 8.4953125 -0.1640625 10.1953125 C-1.1540625 9.8653125 -2.1440625 9.5353125 -3.1640625 9.1953125 C-3.1640625 8.5353125 -3.1640625 7.8753125 -3.1640625 7.1953125 C-3.8240625 7.1953125 -4.4840625 7.1953125 -5.1640625 7.1953125 C-4.08619049 0.36878976 -4.08619049 0.36878976 0 0 Z " fill="#E3E3E2" transform="translate(33.1640625,111.8046875)"/>
<path d="M0 0 C0.33 0 0.66 0 1 0 C1.33 2.64 1.66 5.28 2 8 C2.33 8 2.66 8 3 8 C3.12117188 8.61488281 3.24234375 9.22976562 3.3671875 9.86328125 C3.53476563 10.67152344 3.70234375 11.47976562 3.875 12.3125 C4.03742188 13.11300781 4.19984375 13.91351563 4.3671875 14.73828125 C4.94478999 17.25301118 4.94478999 17.25301118 7 20 C3.17679443 21.42258812 0.08718695 22.24042276 -4 22 C-2.68 21.67 -1.36 21.34 0 21 C0 14.07 0 7.14 0 0 Z " fill="#464E50" transform="translate(81,112)"/>
<path d="M0 0 C2.625 0.375 2.625 0.375 5 1 C5.625 3.875 5.625 3.875 6 7 C4 9 4 9 1.4375 9.1875 C-1 9 -1 9 -2 8 C-2.1875 5.0625 -2.1875 5.0625 -2 2 C-1.34 1.34 -0.68 0.68 0 0 Z " fill="#142027" transform="translate(127,121)"/>
<path d="M0 0 C0.33 0 0.66 0 1 0 C1.33 4.95 1.66 9.9 2 15 C2.99 14.01 3.98 13.02 5 12 C7 17.625 7 17.625 7 21 C4.69 21.33 2.38 21.66 0 22 C0 14.74 0 7.48 0 0 Z " fill="#BABDBB" transform="translate(120,112)"/>
<path d="M0 0 C1.32 0 2.64 0 4 0 C4 4.95 4 9.9 4 15 C2.68 15 1.36 15 0 15 C0 10.05 0 5.1 0 0 Z " fill="#EBEDEB" transform="translate(140,118)"/>
<path d="M0 0 C0.60328125 0.08378906 1.2065625 0.16757813 1.828125 0.25390625 C3.02695312 0.40666016 3.02695312 0.40666016 4.25 0.5625 C5.03890625 0.66691406 5.8278125 0.77132812 6.640625 0.87890625 C9.00532874 1.00027349 10.7511037 0.69633257 13 0 C13 1.32 13 2.64 13 4 C10.00261059 5.99825961 9.36652492 6.27550398 6 6.25 C5.319375 6.25515625 4.63875 6.2603125 3.9375 6.265625 C2 6 2 6 -1 4 C-0.67 2.68 -0.34 1.36 0 0 Z " fill="#DDDAD5" transform="translate(28,128)"/>
<path d="M0 0 C2.94523996 -0.14480525 5.84564943 -0.12458096 8.79321289 -0.04223633 C9.8122168 -0.04481445 10.8312207 -0.04739258 11.88110352 -0.05004883 C17.45859511 0.02387419 17.45859511 0.02387419 19.73071289 0.45776367 C20.39071289 1.44776367 21.05071289 2.43776367 21.73071289 3.45776367 C20.74071289 3.78776367 19.75071289 4.11776367 18.73071289 4.45776367 C18.40071289 3.46776367 18.07071289 2.47776367 17.73071289 1.45776367 C8.32571289 1.95276367 8.32571289 1.95276367 -1.26928711 2.45776367 C-1.59928711 4.76776367 -1.92928711 7.07776367 -2.26928711 9.45776367 C-4.64428711 9.64526367 -4.64428711 9.64526367 -7.26928711 9.45776367 C-7.92928711 8.46776367 -8.58928711 7.47776367 -9.26928711 6.45776367 C-8.67116211 6.39588867 -8.07303711 6.33401367 -7.45678711 6.27026367 C-6.73491211 6.00213867 -6.01303711 5.73401367 -5.26928711 5.45776367 C-4.95733398 4.62631836 -4.64538086 3.79487305 -4.32397461 2.93823242 C-2.26928711 0.45776367 -2.26928711 0.45776367 0 0 Z " fill="#240A03" transform="translate(63.269287109375,107.542236328125)"/>
<path d="M0 0 C0.66 0.33 1.32 0.66 2 1 C1.67 3.31 1.34 5.62 1 8 C0.34 7.67 -0.32 7.34 -1 7 C-0.67 6.34 -0.34 5.68 0 5 C-0.66 5 -1.32 5 -2 5 C-2 5.66 -2 6.32 -2 7 C-10.42857143 8.42857143 -10.42857143 8.42857143 -15 6 C-15 5.67 -15 5.34 -15 5 C-14.08476563 4.80664062 -13.16953125 4.61328125 -12.2265625 4.4140625 C-11.03804688 4.15367188 -9.84953125 3.89328125 -8.625 3.625 C-6.84996094 3.24214844 -6.84996094 3.24214844 -5.0390625 2.8515625 C-1.91803033 2.24476035 -1.91803033 2.24476035 0 0 Z " fill="#310D00" transform="translate(117,106)"/>
<path d="M0 0 C0.5625 1.9375 0.5625 1.9375 1 4 C0 5 0 5 -2.8125 5.3125 C-6 5 -6 5 -8.375 3 C-8.91125 2.34 -9.4475 1.68 -10 1 C-7.66226425 -3.67547149 -4.14212806 -1.30400328 0 0 Z " fill="#25282D" transform="translate(37,125)"/>
<path d="M0 0 C0.66 0.99 1.32 1.98 2 3 C3.96752828 4.06246527 5.96587579 5.07137808 8 6 C7.67 6.66 7.34 7.32 7 8 C6.2575 8.103125 5.515 8.20625 4.75 8.3125 C1.0696348 9.2325913 -0.5094901 11.2248604 -3 14 C-3 9.71 -3 5.42 -3 1 C-2.67 1 -2.34 1 -2 1 C-1.67 2.65 -1.34 4.3 -1 6 C-0.67 4.02 -0.34 2.04 0 0 Z " fill="#3C312A" transform="translate(52,111)"/>
<path d="M0 0 C0.33 0 0.66 0 1 0 C1 2.97 1 5.94 1 9 C1.66 8.67 2.32 8.34 3 8 C3.46523063 6.10466658 3.46523063 6.10466658 3.625 3.9375 C3.74875 2.638125 3.8725 1.33875 4 0 C4.33 0 4.66 0 5 0 C5 2.97 5 5.94 5 9 C6.32 9 7.64 9 9 9 C9 10.32 9 11.64 9 13 C3.51923077 13.36538462 3.51923077 13.36538462 1.3125 11.8125 C-0.45312631 9.37425415 -0.30348915 7.78955493 -0.1875 4.8125 C-0.16042969 3.91144531 -0.13335937 3.01039062 -0.10546875 2.08203125 C-0.07066406 1.39496094 -0.03585938 0.70789063 0 0 Z " fill="#B8BEBE" transform="translate(147,121)"/>
<path d="M0 0 C0.66 0 1.32 0 2 0 C3.65377084 3.30754168 3.76254661 6.45384829 3 10 C0.09100931 14.68716247 -3.48052663 18.66194585 -9 20 C-8.60167969 19.54109375 -8.20335938 19.0821875 -7.79296875 18.609375 C-6.69921568 17.34264395 -5.61356785 16.06887957 -4.53515625 14.7890625 C-3 13 -3 13 -1.125 11.125 C0.73097395 7.61927143 0.22411896 3.88472863 0 0 Z " fill="#CDD2D6" transform="translate(121,74)"/>
<path d="M0 0 C2 2 2 2 2.25 5.5 C2 9 2 9 0 11 C0 8.69 0 6.38 0 4 C-2.31 4 -4.62 4 -7 4 C-7 3.34 -7 2.68 -7 2 C-8.32 1.67 -9.64 1.34 -11 1 C-7.29760977 0.31118321 -3.76869351 -0.31405779 0 0 Z " fill="#290E09" transform="translate(50,108)"/>
<path d="M0 0 C4.13574827 -0.0984702 7.93631321 0.22596442 12 1 C12.33 2.98 12.66 4.96 13 7 C10.36 6.67 7.72 6.34 5 6 C5 4.68 5 3.36 5 2 C3.35 2 1.7 2 0 2 C0 1.34 0 0.68 0 0 Z " fill="#21231B" transform="translate(147,111)"/>
<path d="M0 0 C1.69141656 0.08963062 3.37959602 0.24577676 5.0625 0.4375 C6.44115234 0.59025391 6.44115234 0.59025391 7.84765625 0.74609375 C8.55792969 0.82988281 9.26820312 0.91367188 10 1 C10.33 1.99 10.66 2.98 11 4 C-0.385 3.505 -0.385 3.505 -12 3 C-11.67 2.34 -11.34 1.68 -11 1 C-10.28972656 1.01160156 -9.57945313 1.02320313 -8.84765625 1.03515625 C-7.92855469 1.04417969 -7.00945313 1.05320313 -6.0625 1.0625 C-4.68771484 1.07990234 -4.68771484 1.07990234 -3.28515625 1.09765625 C-1.03406673 1.25949049 -1.03406673 1.25949049 0 0 Z " fill="#150301" transform="translate(69,134)"/>
<path d="M0 0 C0.99 0 1.98 0 3 0 C3 4.95 3 9.9 3 15 C2.01 15 1.02 15 0 15 C0 10.05 0 5.1 0 0 Z " fill="#EFF0ED" transform="translate(63,118)"/>
<path d="M0 0 C0.99 0 1.98 0 3 0 C2.98839844 0.69867188 2.97679688 1.39734375 2.96484375 2.1171875 C2.95582031 3.02726562 2.94679688 3.93734375 2.9375 4.875 C2.92589844 5.77992187 2.91429688 6.68484375 2.90234375 7.6171875 C2.83750743 10.0168585 2.83750743 10.0168585 4 12 C3.0625 14.125 3.0625 14.125 2 16 C1.34 15.67 0.68 15.34 0 15 C0 10.05 0 5.1 0 0 Z " fill="#F1F3F0" transform="translate(121,112)"/>
<path d="M0 0 C0.99 0.99 1.98 1.98 3 3 C1.5 5 1.5 5 -1 7 C-3.75871627 7.35800135 -6.20097524 7.18660165 -9 7 C-8.34 6.67 -7.68 6.34 -7 6 C-7 5.01 -7 4.02 -7 3 C-5.5459375 2.5359375 -5.5459375 2.5359375 -4.0625 2.0625 C-1.15934208 1.30476658 -1.15934208 1.30476658 0 0 Z " fill="#DADCDA" transform="translate(100,127)"/>
<path d="M0 0 C0.33 0 0.66 0 1 0 C1.268125 1.11375 1.53625 2.2275 1.8125 3.375 C2.65809019 7.21840951 2.65809019 7.21840951 6 9 C6 9.99 6 10.98 6 12 C3.3364031 11.64005447 1.41816548 11.28838998 -0.8125 9.75 C-2.43893614 7.35314675 -2.35526205 5.84209638 -2 3 C-1.34 2.01 -0.68 1.02 0 0 Z " fill="#F0EEEA" transform="translate(87,121)"/>
<path d="M0 0 C0.99 0.33 1.98 0.66 3 1 C3 1.66 3 2.32 3 3 C4.32 3.66 5.64 4.32 7 5 C5.68 5.33 4.36 5.66 3 6 C3 10.95 3 15.9 3 21 C4.32 21.33 5.64 21.66 7 22 C5.35 22 3.7 22 2 22 C1.93941406 20.95199219 1.87882813 19.90398437 1.81640625 18.82421875 C1.73198262 17.44529952 1.64733553 16.06639395 1.5625 14.6875 C1.52318359 13.99720703 1.48386719 13.30691406 1.44335938 12.59570312 C1.25072585 9.52838465 0.97677283 6.93031848 0 4 C0 2.68 0 1.36 0 0 Z " fill="#494E4F" transform="translate(137,112)"/>
<path d="M0 0 C-0.66 1.98 -1.32 3.96 -2 6 C-4.64 6 -7.28 6 -10 6 C-5.17857143 -1.55357143 -5.17857143 -1.55357143 0 0 Z " fill="#CFD3D3" transform="translate(100,78)"/>
<path d="M0 0 C0.66 0 1.32 0 2 0 C3.56183798 5.17358831 4.44425619 8.76457131 3 14 C2.01 14 1.02 14 0 14 C-0.19393875 11.85473901 -0.37998676 9.70876323 -0.5625 7.5625 C-0.71912109 5.77005859 -0.71912109 5.77005859 -0.87890625 3.94140625 C-0.91886719 2.97074219 -0.95882813 2.00007813 -1 1 C-0.67 0.67 -0.34 0.34 0 0 Z " fill="#210806" transform="translate(25,115)"/>
<path d="M0 0 C1.32 0 2.64 0 4 0 C4 3.3 4 6.6 4 10 C2.68 10.33 1.36 10.66 0 11 C0 7.37 0 3.74 0 0 Z " fill="#F3F3F1" transform="translate(45,112)"/>
<path d="M0 0 C0.66 0.99 1.32 1.98 2 3 C0.02 3.99 0.02 3.99 -2 5 C-0.68 5.66 0.64 6.32 2 7 C2 7.66 2 8.32 2 9 C-2.00148783 8.38438649 -4.72552036 6.27789888 -8 4 C-8.66 3.67 -9.32 3.34 -10 3 C-8.906875 2.690625 -7.81375 2.38125 -6.6875 2.0625 C-4.44592006 1.41662103 -2.2130649 0.7376883 0 0 Z " fill="#282F2E" transform="translate(92,97)"/>
<path d="M0 0 C0.99 0.33 1.98 0.66 3 1 C3 3.31 3 5.62 3 8 C0.69 7.67 -1.62 7.34 -4 7 C-4 4 -4 4 -2 1.8125 C-1.34 1.214375 -0.68 0.61625 0 0 Z " fill="#121F23" transform="translate(59,119)"/>
<path d="M0 0 C6.27 0 12.54 0 19 0 C19.33 0.99 19.66 1.98 20 3 C15.71 3 11.42 3 7 3 C7 2.34 7 1.68 7 1 C4.69 1.33 2.38 1.66 0 2 C0 1.34 0 0.68 0 0 Z " fill="#1C1810" transform="translate(62,109)"/>
<path d="M0 0 C1.5625 1.125 1.5625 1.125 3 3 C2.77669287 6.64734979 2.61627165 8.38372835 0 11 C-2.68839385 11.26991906 -5.29141936 11.08737357 -8 11 C-8.33 10.34 -8.66 9.68 -9 9 C-6.36 8.67 -3.72 8.34 -1 8 C-0.67 5.36 -0.34 2.72 0 0 Z " fill="#230200" transform="translate(114,126)"/>
<path d="M0 0 C1.625 1.375 1.625 1.375 3 3 C3 3.66 3 4.32 3 5 C4.65 5 6.3 5 8 5 C8 4.34 8 3.68 8 3 C8.66 3 9.32 3 10 3 C9.67 3.99 9.34 4.98 9 6 C7.52093108 6.02689216 6.04172517 6.04634621 4.5625 6.0625 C3.32693359 6.07990234 3.32693359 6.07990234 2.06640625 6.09765625 C0 6 0 6 -1 5 C-1.66 5.66 -2.32 6.32 -3 7 C-3.99 6.01 -4.98 5.02 -6 4 C-2.25 0 -2.25 0 0 0 Z " fill="#0F0A08" transform="translate(168,129)"/>
<path d="M0 0 C1.32 0 2.64 0 4 0 C4 1.98 4 3.96 4 6 C2.35 6 0.7 6 -1 6 C-1 6.66 -1 7.32 -1 8 C-1.66 8 -2.32 8 -3 8 C-2.45276317 4.62537285 -1.9451 2.91765 0 0 Z " fill="#243133" transform="translate(63,112)"/>
<path d="M0 0 C3.63 0.66 7.26 1.32 11 2 C10.67 3.32 10.34 4.64 10 6 C7.33333333 6 4.66666667 6 2 6 C1.855625 5.38125 1.71125 4.7625 1.5625 4.125 C1.06847775 1.96741678 1.06847775 1.96741678 0 0 Z " fill="#302921" transform="translate(103,112)"/>
<path d="M0 0 C2 2 2 2 2.1953125 3.9453125 C2.13020833 5.96354167 2.06510417 7.98177083 2 10 C1.01 10.33 0.02 10.66 -1 11 C-2.38550197 8.22899606 -2.1877467 6.0665294 -2 3 C-1.34 2.01 -0.68 1.02 0 0 Z " fill="#F4F5F2" transform="translate(82,79)"/>
<path d="M0 0 C0 0.66 0 1.32 0 2 C-0.61875 1.731875 -1.2375 1.46375 -1.875 1.1875 C-6.17994393 -0.4483787 -10.58031552 -1.71271326 -15 -3 C-15 -3.33 -15 -3.66 -15 -4 C-7.77895975 -5.04821552 -5.69423677 -4.94499509 0 0 Z " fill="#260501" transform="translate(91,105)"/>
<path d="M0 0 C5.75 1.875 5.75 1.875 8 3 C4.87378374 6.39417765 2.43458973 8.6062718 -2 10 C-1.484375 9.0925 -0.96875 8.185 -0.4375 7.25 C1.23876348 4.22210089 1.23876348 4.22210089 0.6875 1.625 C0.460625 1.08875 0.23375 0.5525 0 0 Z " fill="#2A3235" transform="translate(97,86)"/>
<path d="M0 0 C-0.375 1.9375 -0.375 1.9375 -1 4 C-3.70879335 5.35439668 -6.00933268 5.06501451 -9 5 C-8.67 3.68 -8.34 2.36 -8 1 C-5.10765685 0.17361624 -3.11257569 0 0 0 Z " fill="#D9DDDB" transform="translate(135,129)"/>
<path d="M0 0 C1.27875 0.103125 2.5575 0.20625 3.875 0.3125 C4.95394531 0.39951172 4.95394531 0.39951172 6.0546875 0.48828125 C8 1 8 1 10 4 C9.75 6.125 9.75 6.125 9 8 C8.01 8.495 8.01 8.495 7 9 C6.34 7.02 5.68 5.04 5 3 C4.67 3.33 4.34 3.66 4 4 C3.67 3.01 3.34 2.02 3 1 C2.01 0.67 1.02 0.34 0 0 Z " fill="#26333A" transform="translate(152,117)"/>
<path d="M0 0 C0.66 1.32 1.32 2.64 2 4 C1.34 4.66 0.68 5.32 0 6 C-0.67292501 7.96690374 -0.67292501 7.96690374 -1.125 10.125 C-1.41375 11.40375 -1.7025 12.6825 -2 14 C-2.66 14 -3.32 14 -4 14 C-3.91231752 12.4156683 -3.80412671 10.83246433 -3.6875 9.25 C-3.60048828 7.92742187 -3.60048828 7.92742187 -3.51171875 6.578125 C-2.9358819 3.67696226 -1.92403852 2.20774393 0 0 Z " fill="#211208" transform="translate(79,74)"/>
<path d="M0 0 C-2.4867421 1.4346589 -4.3116189 2.0488814 -7.1875 2.5 C-8.5796875 2.7475 -8.5796875 2.7475 -10 3 C-10.33 3.66 -10.66 4.32 -11 5 C-12.65 4.67 -14.3 4.34 -16 4 C-10.990803 -0.26709374 -6.4078147 -0.12564343 0 0 Z " fill="#270705" transform="translate(104,59)"/>
<path d="M0 0 C0 0.99 0 1.98 0 3 C-0.66 3 -1.32 3 -2 3 C-2 3.66 -2 4.32 -2 5 C-5.3 5 -8.6 5 -12 5 C-12.66 3.68 -13.32 2.36 -14 1 C-13.01 1.33 -12.02 1.66 -11 2 C-9.04413253 2.19459037 -9.04413253 2.19459037 -7 2.1875 C-5.9790625 2.20876953 -5.9790625 2.20876953 -4.9375 2.23046875 C-2.67385868 2.10940411 -2.67385868 2.10940411 0 0 Z " fill="#1E1D1A" transform="translate(102,131)"/>
<path d="M0 0 C3 3 3 3 3.3125 6.8125 C3.18374283 10.47869108 2.36776236 13.5805941 1 17 C0.67 17 0.34 17 0 17 C-0.33 14.69 -0.66 12.38 -1 10 C-0.34 10 0.32 10 1 10 C0.67 6.7 0.34 3.4 0 0 Z " fill="#200801" transform="translate(125,73)"/>
<path d="M0 0 C2 1 2 1 2.6328125 2.85546875 C3.5740148 7.31497489 4.23530026 11.41164496 4 16 C3.34 16 2.68 16 2 16 C1.86722656 15.25234375 1.73445313 14.5046875 1.59765625 13.734375 C1.42105469 12.74953125 1.24445313 11.7646875 1.0625 10.75 C0.88847656 9.77546875 0.71445313 8.8009375 0.53515625 7.796875 C0.05074653 5.06792182 0.05074653 5.06792182 -0.62890625 2.703125 C-0.75136719 2.14109375 -0.87382813 1.5790625 -1 1 C-0.67 0.67 -0.34 0.34 0 0 Z " fill="#25231E" transform="translate(122,67)"/>
<path d="M0 0 C4.875 4.625 4.875 4.625 6 8 C4.02 8 2.04 8 0 8 C0 5.36 0 2.72 0 0 Z " fill="#222828" transform="translate(49,126)"/>
<path d="M0 0 C0.3403125 0.8971875 0.3403125 0.8971875 0.6875 1.8125 C2.41521691 4.69202818 3.96199671 5.58226513 7 7 C10.69523952 7.71923208 10.69523952 7.71923208 14 8 C14 8.33 14 8.66 14 9 C9.07872966 9.16682272 5.49656104 9.24828052 1 7 C1 6.34 1 5.68 1 5 C0.34 5 -0.32 5 -1 5 C-0.67 3.35 -0.34 1.7 0 0 Z " fill="#2B0201" transform="translate(24,129)"/>
<path d="M0 0 C-1.44390925 3.80666984 -3.34952803 5.26602582 -7 7 C-7.66 6.67 -8.32 6.34 -9 6 C-4.5 0 -4.5 0 0 0 Z " fill="#E1E3E5" transform="translate(59,118)"/>
<path d="M0 0 C0.66 0.33 1.32 0.66 2 1 C0.02 3.97 0.02 3.97 -2 7 C-2.99 6.67 -3.98 6.34 -5 6 C-5.33 6.99 -5.66 7.98 -6 9 C-6.66 9 -7.32 9 -8 9 C-6.4169423 4.7257442 -3.49431596 2.73468206 0 0 Z " fill="#22262A" transform="translate(95,66)"/>
<path d="M0 0 C2.64 0 5.28 0 8 0 C8.33 1.32 8.66 2.64 9 4 C6.03 3.67 3.06 3.34 0 3 C0 2.01 0 1.02 0 0 Z " fill="#F0F1EE" transform="translate(92,113)"/>
<path d="M0 0 C0.33 0.66 0.66 1.32 1 2 C-0.14453125 4.3828125 -0.14453125 4.3828125 -1.8125 7.125 C-2.35519531 8.03507812 -2.89789063 8.94515625 -3.45703125 9.8828125 C-3.96621094 10.58148438 -4.47539063 11.28015625 -5 12 C-5.66 12 -6.32 12 -7 12 C-7.33 12.66 -7.66 13.32 -8 14 C-7.67 12.68 -7.34 11.36 -7 10 C-6.34 10 -5.68 10 -5 10 C-4.87625 9.2575 -4.7525 8.515 -4.625 7.75 C-4.03879534 5.17069951 -3.36715445 3.2517838 -2 1 C-1.34 0.67 -0.68 0.34 0 0 Z " fill="#310A01" transform="translate(124,91)"/>
<path d="M0 0 C1.98 0 3.96 0 6 0 C6.625 2.3125 6.625 2.3125 7 5 C6.01 6.485 6.01 6.485 5 8 C2.525 4.04 2.525 4.04 0 0 Z " fill="#1E272A" transform="translate(55,126)"/>
<path d="M0 0 C1.65 0 3.3 0 5 0 C5 4.01474237 3.33218233 5.81975137 1 9 C0.67 9 0.34 9 0 9 C0 6.03 0 3.06 0 0 Z " fill="#1F2122" transform="translate(82,112)"/>
<path d="M0 0 C0.33 0 0.66 0 1 0 C1.226875 0.94875 1.45375 1.8975 1.6875 2.875 C2.69083714 6.19323388 2.69083714 6.19323388 5.625 7.375 C6.800625 7.684375 6.800625 7.684375 8 8 C7.67 8.66 7.34 9.32 7 10 C5.02 10 3.04 10 1 10 C0.63720544 8.71073008 0.28503302 7.41846728 -0.0625 6.125 C-0.35833984 5.04605469 -0.35833984 5.04605469 -0.66015625 3.9453125 C-1 2 -1 2 0 0 Z " fill="#171614" transform="translate(75,91)"/>
<path d="M0 0 C0.99 0.33 1.98 0.66 3 1 C2.67 2.65 2.34 4.3 2 6 C0.35 6.33 -1.3 6.66 -3 7 C-1.125 1.125 -1.125 1.125 0 0 Z " fill="#EBEBEA" transform="translate(84,71)"/>
<path d="M0 0 C1.65 0.33 3.3 0.66 5 1 C5.625 3.875 5.625 3.875 6 7 C4 9 4 9 1.375 9.125 C0.59125 9.08375 -0.1925 9.0425 -1 9 C-1 8.01 -1 7.02 -1 6 C-0.67 6.66 -0.34 7.32 0 8 C0.66 8 1.32 8 2 8 C2 7.34 2 6.68 2 6 C2.99 6 3.98 6 5 6 C4.21869929 3.50447516 4.21869929 3.50447516 3 1 C2.01 0.67 1.02 0.34 0 0 Z " fill="#363F44" transform="translate(127,121)"/>
<path d="M0 0 C0.66 0.33 1.32 0.66 2 1 C2.36923077 6.41538462 2.36923077 6.41538462 0.5 9.375 C0.005 9.91125 -0.49 10.4475 -1 11 C-2.25 3.375 -2.25 3.375 0 0 Z " fill="#D6DADA" transform="translate(104,119)"/>
<path d="M0 0 C0.66 0.66 1.32 1.32 2 2 C1.625 4.625 1.625 4.625 1 7 C-0.98 7.66 -2.96 8.32 -5 9 C-4.67 7.35 -4.34 5.7 -4 4 C-2.68 4 -1.36 4 0 4 C0 2.68 0 1.36 0 0 Z " fill="#1D1915" transform="translate(118,110)"/>
<path d="M0 0 C0.33 0.99 0.66 1.98 1 3 C0.01 3.66 -0.98 4.32 -2 5 C-2.99 4.01 -3.98 3.02 -5 2 C-2 0 -2 0 0 0 Z M-8 3 C-7.01 3 -6.02 3 -5 3 C-5.66 4.65 -6.32 6.3 -7 8 C-7.66 7.67 -8.32 7.34 -9 7 C-8.67 5.68 -8.34 4.36 -8 3 Z " fill="#122227" transform="translate(117,92)"/>
<path d="M0 0 C3.875 0.875 3.875 0.875 5 2 C5.04063832 3.66617115 5.042721 5.33388095 5 7 C4.01 7.33 3.02 7.66 2 8 C0 1.125 0 1.125 0 0 Z " fill="#EBF2F1" transform="translate(37,122)"/>
<path d="M0 0 C1.65 0 3.3 0 5 0 C4.2884375 1.0828125 4.2884375 1.0828125 3.5625 2.1875 C2.05847097 4.89475226 1.43400818 6.96194275 1 10 C0.67 10 0.34 10 0 10 C0 8.35 0 6.7 0 5 C-0.66 5 -1.32 5 -2 5 C-1.34 3.35 -0.68 1.7 0 0 Z " fill="#361F1D" transform="translate(27,110)"/>
<path d="M0 0 C-2.47873633 3.84204131 -2.47873633 3.84204131 -5.0625 4.625 C-5.701875 4.74875 -6.34125 4.8725 -7 5 C-7.66 5.66 -8.32 6.32 -9 7 C-8.6875 4.625 -8.6875 4.625 -8 2 C-4.77208445 -0.1519437 -3.71599191 -0.20086443 0 0 Z " fill="#1F0C05" transform="translate(144,108)"/>
<path d="M0 0 C0 3 0 3 -2.25 5.5625 C-4.51797524 7.57275078 -6.23189141 8.87225206 -9 10 C-9 9.34 -9 8.68 -9 8 C-9.66 7.67 -10.32 7.34 -11 7 C-9.39125 6.38125 -9.39125 6.38125 -7.75 5.75 C-4.47734926 4.36260851 -2.34482838 2.72000092 0 0 Z " fill="#C4CBD1" transform="translate(118,94)"/>
<path d="M0 0 C1.50433594 0.01353516 1.50433594 0.01353516 3.0390625 0.02734375 C3.80992188 0.03894531 4.58078125 0.05054688 5.375 0.0625 C5.375 0.7225 5.375 1.3825 5.375 2.0625 C3.58491533 2.28401549 1.79281838 2.48932213 0 2.6875 C-0.99773437 2.80351563 -1.99546875 2.91953125 -3.0234375 3.0390625 C-3.88195312 3.04679687 -4.74046875 3.05453125 -5.625 3.0625 C-6.285 2.4025 -6.945 1.7425 -7.625 1.0625 C-4.98041621 -0.25979189 -2.94738699 -0.03427194 0 0 Z " fill="#C6CDCC" transform="translate(100.625,62.9375)"/>
<path d="M0 0 C2.64 0 5.28 0 8 0 C8 2.64 8 5.28 8 8 C7.67 7.34 7.34 6.68 7 6 C6.34 5.67 5.68 5.34 5 5 C5.33 4.01 5.66 3.02 6 2 C4.02 2.66 2.04 3.32 0 4 C0 2.68 0 1.36 0 0 Z " fill="#262929" transform="translate(61,110)"/>
<path d="M0 0 C0.33 0 0.66 0 1 0 C1.042721 1.66611905 1.04063832 3.33382885 1 5 C0 6 0 6 -1.84765625 6.09765625 C-3.8984375 6.06510417 -5.94921875 6.03255208 -8 6 C-8.33 5.34 -8.66 4.68 -9 4 C-6.36 3.67 -3.72 3.34 -1 3 C-0.67 2.01 -0.34 1.02 0 0 Z " fill="#1F0200" transform="translate(178,131)"/>
<path d="M0 0 C0.33 0 0.66 0 1 0 C1 2.97 1 5.94 1 9 C-0.65 9.33 -2.3 9.66 -4 10 C-4.33 9.34 -4.66 8.68 -5 8 C-4.0409375 7.13375 -4.0409375 7.13375 -3.0625 6.25 C-1.01776132 4.01937599 -0.41794801 2.92563609 0 0 Z " fill="#202021" transform="translate(43,125)"/>
<path d="M0 0 C2.475 0.495 2.475 0.495 5 1 C4.67 2.32 4.34 3.64 4 5 C2.68 5 1.36 5 0 5 C0 3.35 0 1.7 0 0 Z " fill="#182426" transform="translate(33,125)"/>
<path d="M0 0 C0.33 0 0.66 0 1 0 C1 2.31 1 4.62 1 7 C2.32 7.33 3.64 7.66 5 8 C4.34 8 3.68 8 3 8 C2.67 8.99 2.34 9.98 2 11 C1.01 10.67 0.02 10.34 -1 10 C-0.67 6.7 -0.34 3.4 0 0 Z " fill="#DDE1DA" transform="translate(124,112)"/>
<path d="M0 0 C1.98 0 3.96 0 6 0 C6.33 0.99 6.66 1.98 7 3 C9.00016466 4.20882096 9.00016466 4.20882096 11 5 C9 6 7 7 5 8 C5 5.69 5 3.38 5 1 C3.35 1 1.7 1 0 1 C0 0.67 0 0.34 0 0 Z " fill="#24221E" transform="translate(120,111)"/>
<path d="M0 0 C0.99 0.99 1.98 1.98 3 3 C2.6875 5.6875 2.6875 5.6875 2 8 C0.35 8.33 -1.3 8.66 -3 9 C-2.01 6.03 -1.02 3.06 0 0 Z " fill="#323837" transform="translate(120,66)"/>
<path d="M0 0 C1.32 0 2.64 0 4 0 C3.67 1.65 3.34 3.3 3 5 C1.68 5 0.36 5 -1 5 C-0.67 3.35 -0.34 1.7 0 0 Z " fill="#1E2329" transform="translate(111,68)"/>
<path d="M0 0 C2.31 0 4.62 0 7 0 C7.33 1.32 7.66 2.64 8 4 C5.03 3.67 2.06 3.34 -1 3 C-0.67 2.01 -0.34 1.02 0 0 Z " fill="#250403" transform="translate(39,134)"/>
<path d="M0 0 C0.33 0 0.66 0 1 0 C1 2.97 1 5.94 1 9 C-0.32 9 -1.64 9 -3 9 C-3 8.34 -3 7.68 -3 7 C-2.34 7 -1.68 7 -1 7 C-1 5.68 -1 4.36 -1 3 C-1.66 2.67 -2.32 2.34 -3 2 C-2.01 2 -1.02 2 0 2 C0 1.34 0 0.68 0 0 Z " fill="#1E2A2D" transform="translate(119,115)"/>
<path d="M0 0 C1.98 0 3.96 0 6 0 C6 1.32 6 2.64 6 4 C4.02 4 2.04 4 0 4 C0 2.68 0 1.36 0 0 Z " fill="#D9DBD4" transform="translate(112,118)"/>
<path d="M0 0 C2.475 0.99 2.475 0.99 5 2 C5 2.99 5 3.98 5 5 C3.35 5 1.7 5 0 5 C-0.33 4.01 -0.66 3.02 -1 2 C-0.67 1.34 -0.34 0.68 0 0 Z " fill="#E2DEE0" transform="translate(28,128)"/>
<path d="M0 0 C0.66 0 1.32 0 2 0 C2.33 1.98 2.66 3.96 3 6 C1.68 6 0.36 6 -1 6 C-1.042721 4.33388095 -1.04063832 2.66617115 -1 1 C-0.67 0.67 -0.34 0.34 0 0 Z " fill="#E0DFDC" transform="translate(46,128)"/>
<path d="M0 0 C1.32 0.33 2.64 0.66 4 1 C3.34 3.31 2.68 5.62 2 8 C1.34 8 0.68 8 0 8 C0 5.36 0 2.72 0 0 Z " fill="#EEF4F6" transform="translate(140,118)"/>
<path d="M0 0 C2.31 0 4.62 0 7 0 C7 1.32 7 2.64 7 4 C4.03 3.505 4.03 3.505 1 3 C0.67 2.01 0.34 1.02 0 0 Z " fill="#F1F3EF" transform="translate(126,118)"/>
<path d="M0 0 C0.66 0 1.32 0 2 0 C2.33 1.32 2.66 2.64 3 4 C0.525 5.485 0.525 5.485 -2 7 C-2.99 6.34 -3.98 5.68 -5 5 C-4.01 4.01 -3.02 3.02 -2 2 C-2 2.66 -2 3.32 -2 4 C-1.34 3.67 -0.68 3.34 0 3 C0 2.01 0 1.02 0 0 Z " fill="#FAFBF8" transform="translate(116,61)"/>
<path d="M0 0 C0.99 0.33 1.98 0.66 3 1 C2.67 2.98 2.34 4.96 2 7 C0.35 5.35 -1.3 3.7 -3 2 C-2.01 1.34 -1.02 0.68 0 0 Z " fill="#DADFDE" transform="translate(52,124)"/>
<path d="M0 0 C1.65 0.33 3.3 0.66 5 1 C5 1.66 5 2.32 5 3 C5.66 3.33 6.32 3.66 7 4 C4.36 3.67 1.72 3.34 -1 3 C-0.67 2.01 -0.34 1.02 0 0 Z " fill="#111009" transform="translate(157,109)"/>
<path d="M0 0 C0.391875 0.639375 0.78375 1.27875 1.1875 1.9375 C3.38472296 4.43778819 4.75791433 4.64950425 8 5 C7.01 6.485 7.01 6.485 6 8 C1.125 6.125 1.125 6.125 0 5 C-0.04063832 3.33382885 -0.042721 1.66611905 0 0 Z " fill="#C8D0CF" transform="translate(76,91)"/>
<path d="M0 0 C0.66 0 1.32 0 2 0 C2.33 0.99 2.66 1.98 3 3 C3.66 3.66 4.32 4.32 5 5 C4.01 6.485 4.01 6.485 3 8 C2.34 8 1.68 8 1 8 C0.67 5.36 0.34 2.72 0 0 Z " fill="#E0E2E0" transform="translate(104,87)"/>
<path d="M0 0 C1.485 0.99 1.485 0.99 3 2 C3.99 2.33 4.98 2.66 6 3 C5.34 4.65 4.68 6.3 4 8 C0 3.375 0 3.375 0 0 Z " fill="#1A0100" transform="translate(169,121)"/>
<path d="M0 0 C1.5 1.0625 1.5 1.0625 3 3 C3.1875 6.6875 3.1875 6.6875 3 10 C2.67 10 2.34 10 2 10 C2 8.02 2 6.04 2 4 C0.68 4.33 -0.64 4.66 -2 5 C-1.34 3.35 -0.68 1.7 0 0 Z " fill="#CFD4D3" transform="translate(134,119)"/>
<path d="M0 0 C0.66 0.33 1.32 0.66 2 1 C2.625 4.0625 2.625 4.0625 3 7 C2.01 6.67 1.02 6.34 0 6 C0 5.34 0 4.68 0 4 C-0.66 4 -1.32 4 -2 4 C-2 3.01 -2 2.02 -2 1 C-1.34 0.67 -0.68 0.34 0 0 Z " fill="#F4F6F5" transform="translate(30,115)"/>
<path d="M0 0 C0.66 0.33 1.32 0.66 2 1 C1.67 2.98 1.34 4.96 1 7 C-1.97 6.67 -4.94 6.34 -8 6 C-8 5.67 -8 5.34 -8 5 C-5.69 5 -3.38 5 -1 5 C-0.67 3.35 -0.34 1.7 0 0 Z " fill="#2B0100" transform="translate(127,103)"/>
<path d="M0 0 C0.33 0 0.66 0 1 0 C1.37211538 7.56634615 1.37211538 7.56634615 -0.51171875 9.76171875 C-1.00285156 10.17035156 -1.49398437 10.57898438 -2 11 C-1.85892253 9.54119891 -1.71197585 8.08296449 -1.5625 6.625 C-1.48128906 5.81289062 -1.40007812 5.00078125 -1.31640625 4.1640625 C-1 2 -1 2 0 0 Z " fill="#242B30" transform="translate(121,75)"/>
<path d="M0 0 C1.32 0 2.64 0 4 0 C4 1.32 4 2.64 4 4 C2.35 3.67 0.7 3.34 -1 3 C-0.67 2.01 -0.34 1.02 0 0 Z " fill="#DEE0DD" transform="translate(140,112)"/>
<path d="M0 0 C-0.33 0.99 -0.66 1.98 -1 3 C-2.98 3 -4.96 3 -7 3 C-7.33 2.34 -7.66 1.68 -8 1 C-5.07175348 0.02391783 -3.04386724 -0.08226668 0 0 Z " fill="#ECF2ED" transform="translate(89,96)"/>
<path d="M0 0 C0.33 0 0.66 0 1 0 C1 3.3 1 6.6 1 10 C-0.32 10.33 -1.64 10.66 -3 11 C-2 8 -2 8 -1 7 C-0.63239269 4.67182036 -0.29758419 2.3381615 0 0 Z " fill="#321308" transform="translate(124,57)"/>
<path d="M0 0 C1.5 1.25 1.5 1.25 3 3 C3 4.32 3 5.64 3 7 C2.01 7.33 1.02 7.66 0 8 C0 5.36 0 2.72 0 0 Z " fill="#0A0300" transform="translate(114,126)"/>
<path d="M0 0 C1.32 0 2.64 0 4 0 C3.67 1.32 3.34 2.64 3 4 C1.68 3.67 0.36 3.34 -1 3 C-0.67 2.01 -0.34 1.02 0 0 Z " fill="#E3E4E2" transform="translate(63,112)"/>
<path d="M0 0 C0 0.66 0 1.32 0 2 C-2.31 2.33 -4.62 2.66 -7 3 C-7.33 2.34 -7.66 1.68 -8 1 C-5.10765685 0.17361624 -3.11257569 0 0 0 Z " fill="#EAEAEF" transform="translate(109,102)"/>
<path d="M0 0 C0.99 0.33 1.98 0.66 3 1 C2.67 1.99 2.34 2.98 2 4 C1.01 4 0.02 4 -1 4 C-1.99 4.495 -1.99 4.495 -3 5 C-2.625 3.0625 -2.625 3.0625 -2 1 C-1.34 0.67 -0.68 0.34 0 0 Z " fill="#EDF0EC" transform="translate(114,61)"/>
<path d="M0 0 C0 0.66 0 1.32 0 2 C-4.455 2.495 -4.455 2.495 -9 3 C-9 2.34 -9 1.68 -9 1 C-3.375 -1.125 -3.375 -1.125 0 0 Z " fill="#221F1C" transform="translate(103,61)"/>
<path d="M0 0 C2 1 2 1 2 1 Z " fill="#4A0000" transform="translate(124,105)"/>
</svg>
